<svg xmlns="http://www.w3.org/2000/svg" xmlns:xlink="http://www.w3.org/1999/xlink" width="115.653" height="68.521" viewBox="0 0 115.653 68.521">
  <defs>
    <filter id="svg_6" x="0" y="0" width="115.653" height="68.521" filterUnits="userSpaceOnUse">
      <feOffset dy="3" input="SourceAlpha"/>
      <feGaussianBlur stdDeviation="3" result="blur"/>
      <feFlood flood-opacity="0.161"/>
      <feComposite operator="in" in2="blur"/>
      <feComposite in="SourceGraphic"/>
    </filter>
  </defs>
  <g id="Group_37280" data-name="Group 37280" transform="translate(9.28 6.28)">
    <g transform="matrix(1, 0, 0, 1, -9.28, -6.28)" filter="url(#svg_6)">
      <rect id="svg_6-2" data-name="svg_6" width="97.093" height="49.961" rx="6.32" transform="translate(9.28 6.28)" fill="#fff" stroke="#e7e7e7" stroke-width="0.56"/>
    </g>
    <path id="svg_7" d="M39.518,23.708a3.883,3.883,0,0,1-3.085,1.468A4.351,4.351,0,0,1,37.5,21.984a4.575,4.575,0,0,1,3.043-1.564,4.628,4.628,0,0,1-1.064,3.287M40.539,25.4c-1.692-.085-3.192.968-3.947.968s-2.043-.915-3.394-.894a5.011,5.011,0,0,0-4.256,2.575c-1.83,3.192-.479,7.809,1.3,10.373.872,1.255,1.9,2.66,3.277,2.607s1.809-.83,3.362-.83,2.021.83,3.394.819,2.309-1.266,3.192-2.543A11.7,11.7,0,0,0,44.88,35.56a4.628,4.628,0,0,1-2.756-4.181,4.713,4.713,0,0,1,2.245-3.958,4.968,4.968,0,0,0-3.809-2.043m9.777-3.511v19h2.979v-6.5H57.4a6.032,6.032,0,0,0,6.383-6.277,5.926,5.926,0,0,0-6.245-6.224Zm2.958,2.49h3.426c2.564,0,4.022,1.362,4.022,3.766s-1.468,3.788-4.022,3.788H53.3ZM69.158,41.028a4.862,4.862,0,0,0,4.351-2.436h0v2.277h2.745V31.41c0-2.734-2.192-4.511-5.564-4.511-3.192,0-5.458,1.787-5.532,4.256h2.67a2.575,2.575,0,0,1,2.787-1.936c1.809,0,2.809.84,2.809,2.383v1.064l-3.681.213c-3.436.213-5.32,1.617-5.32,4.053S66.4,41.028,69.158,41.028Zm.777-2.256c-1.511,0-2.575-.713-2.575-1.915s.958-1.883,2.809-2l3.287-.213v1.064C73.457,37.517,71.946,38.773,69.935,38.773ZM79.957,46.05c2.873,0,4.256-1.064,5.415-4.426l5.192-14.554h-2.99l-3.5,11.246h0L80.542,27.069h-3.1l5,13.831-.277.84a2.351,2.351,0,0,1-2.49,1.979,7.348,7.348,0,0,1-.862-.053v2.266a5.479,5.479,0,0,0,1.138.1Z" transform="translate(-10.781 -6.77)"/>
  </g>
</svg>
