<svg xmlns="http://www.w3.org/2000/svg" xmlns:xlink="http://www.w3.org/1999/xlink" width="115.653" height="68.521" viewBox="0 0 115.653 68.521">
  <defs>
    <filter id="svg_5" x="0" y="0" width="115.653" height="68.521" filterUnits="userSpaceOnUse">
      <feOffset dy="3" input="SourceAlpha"/>
      <feGaussianBlur stdDeviation="3" result="blur"/>
      <feFlood flood-opacity="0.161"/>
      <feComposite operator="in" in2="blur"/>
      <feComposite in="SourceGraphic"/>
    </filter>
    <clipPath id="clip-path">
      <rect id="svg_1" width="64.988" height="21.718" fill="none"/>
    </clipPath>
  </defs>
  <g id="Group_68055" data-name="Group 68055" transform="translate(-360.653 6.28)">
    <g id="Group_37278" data-name="Group 37278" transform="translate(369.933)">
      <g transform="matrix(1, 0, 0, 1, -9.28, -6.28)" filter="url(#svg_5)">
        <path id="svg_5-2" data-name="svg_5" d="M6.251,0h84.59a6.251,6.251,0,0,1,6.251,6.251V43.71a6.251,6.251,0,0,1-6.251,6.251H6.251A6.251,6.251,0,0,1,0,43.71V6.251A6.251,6.251,0,0,1,6.251,0Z" transform="translate(9.28 6.28)" fill="#fff" stroke="#e7e7e7" stroke-width="0.56"/>
      </g>
    </g>
    <g id="svg_17" transform="translate(386.897 14.122)" clip-path="url(#clip-path)">
      <rect id="svg_18" width="27.508" height="9.156" transform="translate(0 12.51)" fill="#76aa29"/>
    </g>
    <g id="svg_19" transform="translate(386.897 14.122)" clip-path="url(#clip-path)">
      <rect id="svg_20" width="27.508" height="9.176" fill="#2889ce"/>
    </g>
    <g id="svg_21" transform="translate(386.897 14.122)" clip-path="url(#clip-path)">
      <path id="svg_22" d="M274.323,31.53H274.1v3.19h-.186a4.314,4.314,0,0,0-1.218-.217c-2.673,0-3.252,2.064-3.252,3.726a3.3,3.3,0,0,0,3.582,3.664,7.587,7.587,0,0,0,2.395-.33,1.032,1.032,0,0,0,.908-1.166V31.21c-.65.134-1.3.237-1.951.341m-.227,8.619h-.114a3.922,3.922,0,0,1-.919.114c-.712,0-1.569-.361-1.569-2.064,0-.888.145-2.064,1.5-2.064h0a3.9,3.9,0,0,1,.97.2h.1Z" transform="translate(-219.1 -20.361)" fill="#1d1f22"/>
    </g>
    <g id="svg_23" transform="translate(386.897 14.122)" clip-path="url(#clip-path)">
      <path id="svg_24" d="M280.864,34.35a9.012,9.012,0,0,0-2.725.475l-.671.206.217,1.548.681-.227a7.894,7.894,0,0,1,2.23-.382c.289,0,1.2,0,1.2.97v.413h-1.259c-2.271,0-3.334.733-3.334,2.3,0,1.332.981,2.137,2.611,2.137a8.415,8.415,0,0,0,1.806-.248h.279l1.94.351V36.838c0-1.652-1.032-2.488-2.973-2.488m.939,5.77h-.113l-.4.1a3.642,3.642,0,0,1-1.032.165c-.63,0-1.032-.32-1.032-.836,0-.351.155-.919,1.187-.919h1.332Z" transform="translate(-218.849 -20.26)" fill="#1d1f22"/>
    </g>
    <g id="svg_25" transform="translate(386.897 14.122)" clip-path="url(#clip-path)">
      <path id="svg_26" d="M265.514,34.35a8.909,8.909,0,0,0-2.725.475l-.681.206.227,1.548.681-.227a7.9,7.9,0,0,1,2.219-.382c.3,0,1.2,0,1.2.97v.413h-1.249c-2.271,0-3.334.733-3.334,2.3,0,1.332.97,2.137,2.6,2.137a8.587,8.587,0,0,0,1.817-.248h.258c.64.124,1.3.227,1.941.372V36.858c0-1.672-1.032-2.508-2.952-2.508m.919,5.77h-.113l-.4.1a3.53,3.53,0,0,1-1.032.165c-.63,0-1.032-.32-1.032-.836,0-.351.155-.919,1.187-.919h1.332Z" transform="translate(-219.344 -20.26)" fill="#1d1f22"/>
    </g>
    <g id="svg_27" transform="translate(386.897 14.122)" clip-path="url(#clip-path)">
      <path id="svg_28" d="M258.239,34.37a5.533,5.533,0,0,0-2.209.485h-.155a3.365,3.365,0,0,0-1.982-.485,8.484,8.484,0,0,0-2.343.351c-.692.206-.96.537-.96,1.177V41.72h2.178V36.311h.1a3.1,3.1,0,0,1,.96-.175.867.867,0,0,1,.95,1.032v4.6h2.137V37.013a1.209,1.209,0,0,0-.072-.475l-.062-.134.134-.072a2.8,2.8,0,0,1,1.032-.227.867.867,0,0,1,.95,1.032v4.6h2.147V36.889c0-1.7-.939-2.519-2.839-2.519" transform="translate(-219.706 -20.26)" fill="#1d1f22"/>
    </g>
    <g id="svg_29" transform="translate(386.897 14.122)" clip-path="url(#clip-path)">
      <path id="svg_30" d="M280.545,20.7h-.052a3.86,3.86,0,0,0-2.983,1.032,2.065,2.065,0,0,0-.4,1.208v3.231c0,.279,0,.382-.072.4l-.062.134H273.03V24.447h0c-.051-2.374-1.466-3.675-3.5-3.675h-1.992c-.093.568-.145,1.032-.227,1.559h1.982c1.032,0,1.579.888,1.579,2.24v2.281l-.145-.072a1.475,1.475,0,0,0-.464-.072h-3.406c-.072.434-.145,1.032-.248,1.569h10.5l1.135-.2a5.74,5.74,0,0,0,2.188.4,3.582,3.582,0,0,0,3.747-3.871,3.582,3.582,0,0,0-3.634-3.912m0,5.977a6.47,6.47,0,0,1-1.258-.124h-.125v-3.1a2.184,2.184,0,0,0,0-.444l-.072-.145.145-.052h.248a5.159,5.159,0,0,1,1.115-.134h0c1.332,0,1.487,1.177,1.487,2.064,0,1.744-.826,2.064-1.548,2.064" transform="translate(-219.19 -20.7)" fill="#1d1f22"/>
    </g>
    <g id="svg_31" transform="translate(386.897 14.122)" clip-path="url(#clip-path)">
      <path id="svg_32" d="M262.668,29.263h.1c2.271,0,3.334-.743,3.334-2.6a2.384,2.384,0,0,0-2.6-2.405h-2.064a.908.908,0,0,1-1.032-.95c0-.4.155-.929,1.187-.929h4.583c.1-.588.144-.97.248-1.559h-4.769c-2.219,0-3.334.939-3.334,2.488s.97,2.322,2.612,2.322H263a1.037,1.037,0,1,1-.144,2.064H254.6c-1.032,0-1.755-.6-1.755-1.951V24.8c0-1.424.547-2.312,1.755-2.312h1.992c.093-.609.144-1.032.227-1.559h-2.746c-2.064,0-3.437,1.352-3.489,3.737V25.7a3.221,3.221,0,0,0,3.489,3.51h8.64Z" transform="translate(-219.707 -20.696)" fill="#1d1f22"/>
    </g>
  </g>
</svg>
