<svg xmlns="http://www.w3.org/2000/svg" xmlns:xlink="http://www.w3.org/1999/xlink" width="115.653" height="68.521" viewBox="0 0 115.653 68.521">
  <defs>
    <filter id="svg_3" x="0" y="0" width="115.653" height="68.521" filterUnits="userSpaceOnUse">
      <feOffset dy="3" input="SourceAlpha"/>
      <feGaussianBlur stdDeviation="3" result="blur"/>
      <feFlood flood-opacity="0.161"/>
      <feComposite operator="in" in2="blur"/>
      <feComposite in="SourceGraphic"/>
    </filter>
  </defs>
  <g id="Group_37279" data-name="Group 37279" transform="translate(9.28 6.28)">
    <g transform="matrix(1, 0, 0, 1, -9.28, -6.28)" filter="url(#svg_3)">
      <path id="svg_3-2" data-name="svg_3" d="M6.251,0h84.59a6.251,6.251,0,0,1,6.251,6.251V43.71a6.251,6.251,0,0,1-6.251,6.251H6.251A6.251,6.251,0,0,1,0,43.71V6.251A6.251,6.251,0,0,1,6.251,0Z" transform="translate(9.28 6.28)" fill="#fff" stroke="#e7e7e7" stroke-width="0.56"/>
    </g>
    <rect id="svg_11" width="54.589" height="44.78" transform="translate(20.257 2.575)" fill="none"/>
    <path id="svg_12" d="M141.34,47.088V44.854a1.319,1.319,0,0,0-1.223-1.415h-.17a1.373,1.373,0,0,0-1.255.638,1.319,1.319,0,0,0-1.17-.638,1.224,1.224,0,0,0-1.064.521v-.436h-.777v3.543h.777V45.11a.819.819,0,0,1,.713-.936h.149c.511,0,.777.33.777.936v1.979h.777V45.12a.851.851,0,0,1,.734-.936.607.607,0,0,1,.138,0c.532,0,.777.34.777.936V47.1Zm11.554-3.553h-1.266V42.471h-.777v1.064h-.734v.713h.734v1.617c0,.83.319,1.319,1.234,1.319a1.894,1.894,0,0,0,.968-.266l-.224-.67a1.4,1.4,0,0,1-.681.2c-.383,0-.511-.234-.511-.6V44.248H152.9v-.713Zm6.6-.074a1.064,1.064,0,0,0-.936.521v-.426h-.766V47.1h.777V45.11c0-.585.255-.926.766-.926a1.149,1.149,0,0,1,.468.1l.245-.723a1.681,1.681,0,0,0-.553-.1Zm-9.969.362a2.574,2.574,0,0,0-1.447-.362c-.9,0-1.479.426-1.479,1.138s.436.936,1.223,1.064h.362c.436.064.628.17.628.362s-.287.426-.809.426a1.84,1.84,0,0,1-1.192-.362l-.362.606a2.575,2.575,0,0,0,1.532.457c1.064,0,1.617-.479,1.617-1.16s-.479-.947-1.234-1.064H148c-.34,0-.606-.117-.606-.351s.255-.415.681-.415a2.224,2.224,0,0,1,1.064.309Zm20.714-.362a1.064,1.064,0,0,0-.936.521v-.426h-.766V47.1h.777V45.11c0-.585.255-.926.766-.926a1.245,1.245,0,0,1,.479.1l.234-.723a1.68,1.68,0,0,0-.553-.1Zm-9.969,1.851a1.787,1.787,0,0,0,1.724,1.872h.17a1.936,1.936,0,0,0,1.287-.426l-.362-.617a1.521,1.521,0,0,1-.936.309,1.064,1.064,0,0,1-1.064-1.2,1.128,1.128,0,0,1,1.064-1.064,1.575,1.575,0,0,1,.936.319l.362-.617a1.862,1.862,0,0,0-1.287-.426,1.8,1.8,0,0,0-1.947,1.724v.16Zm7.235,0V43.535h-.777v.426a1.372,1.372,0,0,0-1.117-.521,1.872,1.872,0,0,0,0,3.745,1.373,1.373,0,0,0,1.117-.521v.426h.777Zm-2.883,0a1.1,1.1,0,1,1,0,.074Zm-9.32-1.851a1.851,1.851,0,0,0-1.755,1.958,1.872,1.872,0,0,0,1.819,1.777,2.2,2.2,0,0,0,1.458-.489l-.372-.564a1.67,1.67,0,0,1-1.064.362.979.979,0,0,1-1.064-.872h2.649v-.3a1.724,1.724,0,0,0-1.713-1.872Zm0,.681a.883.883,0,0,1,.9.851h-1.841a.883.883,0,0,1,.936-.851Zm19.4,1.17V42.12h-.777v1.851a1.373,1.373,0,0,0-1.117-.521,1.872,1.872,0,0,0,0,3.745,1.372,1.372,0,0,0,1.117-.521V47.1h.777Zm1.287,1.266h.138a.33.33,0,0,1,.117.085.245.245,0,0,1,.074.106.383.383,0,0,1,0,.266.224.224,0,0,1-.074.117.363.363,0,0,1-.117.074.33.33,0,0,1-.138,0,.351.351,0,0,1-.33-.223.383.383,0,0,1,0-.266.245.245,0,0,1,.074-.106l.117-.085h.138Zm0,.638a.192.192,0,0,0,.106,0,.171.171,0,0,0,.085-.064.287.287,0,0,0,0-.394l-.085-.064h-.213l-.1.064a.266.266,0,0,0,0,.394s0,.053.1.064Zm0-.447a.064.064,0,1,1,.1.085h0a.085.085,0,0,1-.075,0l.106.128h-.074l-.1-.128h0v.128h-.064v-.33Zm-.074.064v.1h.074ZM171.8,45.312a1.1,1.1,0,1,1,0,.074Zm-26.1,0V43.535h-.777v.426a1.394,1.394,0,0,0-1.128-.521,1.872,1.872,0,1,0,0,3.745,1.394,1.394,0,0,0,1.128-.521v.426h.777Zm-2.894,0a1.1,1.1,0,1,1,0,.074v-.074Z" transform="translate(-107.507 -5.382)" fill="#231f20"/>
    <rect id="svg_13" width="11.714" height="21.044" transform="translate(41.705 11.065)" fill="#ff5f00"/>
    <path id="svg_14" d="M150.073,28.683a13.427,13.427,0,0,1,5.117-10.511,13.384,13.384,0,1,0,0,21.055A13.427,13.427,0,0,1,150.073,28.683Z" transform="translate(-107.644 -7.096)" fill="#eb001b"/>
    <path id="svg_15" d="M175.541,28.683A13.384,13.384,0,0,1,153.88,39.216a13.384,13.384,0,0,0,2.255-18.8,13.7,13.7,0,0,0-2.255-2.245,13.395,13.395,0,0,1,21.661,10.522Z" transform="translate(-106.345 -7.096)" fill="#f79e1b"/>
    <path id="svg_16" d="M173.066,35.721V35.3h.181v-.1H172.8v.1h.213v.426Zm.862,0V35.2h-.149l-.16.362-.149-.362h-.149v.521h.1v-.394l.138.33h.1l.149-.33v.394Z" transform="translate(-105.135 -5.825)" fill="#f79e1b"/>
  </g>
</svg>
