<svg xmlns="http://www.w3.org/2000/svg" xmlns:xlink="http://www.w3.org/1999/xlink" width="115.653" height="68.521" viewBox="0 0 115.653 68.521">
  <defs>
    <filter id="svg_5" x="0" y="0" width="115.653" height="68.521" filterUnits="userSpaceOnUse">
      <feOffset dy="3" input="SourceAlpha"/>
      <feGaussianBlur stdDeviation="3" result="blur"/>
      <feFlood flood-opacity="0.161"/>
      <feComposite operator="in" in2="blur"/>
      <feComposite in="SourceGraphic"/>
    </filter>
  </defs>
  <g id="Group_37278" data-name="Group 37278" transform="translate(9.28 6.28)">
    <g transform="matrix(1, 0, 0, 1, -9.28, -6.28)" filter="url(#svg_5)">
      <path id="svg_5-2" data-name="svg_5" d="M6.251,0h84.59a6.251,6.251,0,0,1,6.251,6.251V43.71a6.251,6.251,0,0,1-6.251,6.251H6.251A6.251,6.251,0,0,1,0,43.71V6.251A6.251,6.251,0,0,1,6.251,0Z" transform="translate(9.28 6.28)" fill="#fff" stroke="#e7e7e7" stroke-width="0.56"/>
    </g>
    <rect id="svg_33" width="53.408" height="4.788" transform="translate(21.843 36.982)" fill="#f6941c"/>
    <rect id="svg_34" width="53.408" height="4.788" transform="translate(21.843 8.511)" fill="#000664"/>
    <path id="svg_35" d="M345.792,25.062,340.27,38.222h-3.6l-2.724-10.511c-.17-.649-.3-.883-.809-1.149a14.138,14.138,0,0,0-3.362-1.128l.085-.383h5.809a1.553,1.553,0,0,1,1.553,1.341l1.426,7.618,3.553-9h3.586ZM359.9,33.924c0-3.479-4.809-3.66-4.766-5.213,0-.468.458-.968,1.436-1.064a6.181,6.181,0,0,1,3.362.585l.6-2.777a9.289,9.289,0,0,0-3.192-.585c-3.362,0-5.734,1.787-5.756,4.351,0,1.9,1.7,2.958,2.968,3.585s1.787,1.064,1.766,1.628c0,.883-1.064,1.277-2.032,1.287a7.054,7.054,0,0,1-3.5-.83l-.553,2.883a10.246,10.246,0,0,0,3.788.7c3.575,0,5.926-1.787,5.937-4.522m8.884,4.256h3.138L369.23,25.051h-2.9a1.511,1.511,0,0,0-1.447.968l-5.107,12.192h3.575l.713-1.968h4.373Zm-3.862-4.692,1.809-4.937,1.064,4.937Zm-14.31-8.511-2.819,13.161h-3.394l2.82-13.161Z" transform="translate(-302.309 -6.485)" fill="#000664"/>
  </g>
</svg>
