<svg id="Group_53" data-name="Group 53" xmlns="http://www.w3.org/2000/svg" xmlns:xlink="http://www.w3.org/1999/xlink" width="35.122" height="31.535" viewBox="0 0 35.122 31.535">
  <defs>
    <clipPath id="clip-path">
      <rect id="Rectangle_144" data-name="Rectangle 144" width="35.122" height="31.535"/>
    </clipPath>
  </defs>
  <g id="Group_52" data-name="Group 52" clip-path="url(#clip-path)">
    <path id="Path_612" data-name="Path 612" d="M13.456,22.308c3.108,0,6,0,8.887,0,3.339,0,6.68-.039,10.017.048.571.015,1.123.572,1.684.878-.577.36-1.149,1.026-1.732,1.033-5.985.077-11.973.108-17.956-.01A4.055,4.055,0,0,1,11.4,22.981a2.807,2.807,0,0,1,.6-2.861c1.809-1.484,1.3-2.795.478-4.431Q9.565,9.872,6.957,3.938A2.655,2.655,0,0,0,4.2,2.174a13.743,13.743,0,0,1-3-.275C.735,1.787.4,1.22,0,.858.433.557.874-.009,1.3,0A25.086,25.086,0,0,1,6.914.486C7.735.7,8.478,1.858,8.8,2.723c.561,1.5,1.434,1.983,3.25,2.008,7.116.1,14.229.416,21.345.582,1.5.035,1.861.616,1.686,1.778-.457,3.046-.934,6.09-1.317,9.143-.143,1.141-.662,1.628-1.99,1.732-4.7.369-9.4.844-14.1,1.264-2.345.21-3.228.792-4.222,3.079M10.719,6.7c1.666,3.537,3.136,6.731,4.706,9.886a1.806,1.806,0,0,0,1.406.68q6.766-.531,13.515-1.233c.437-.045,1.127-.451,1.182-.761.45-2.566.778-5.15,1.169-7.918L10.719,6.7" transform="translate(0 0)"/>
    <path id="Path_613" data-name="Path 613" d="M74.41,81.34a3.467,3.467,0,0,1-3.592-3.189,3.386,3.386,0,0,1,3.574-3.178,3.316,3.316,0,0,1,3.556,3.161A3.359,3.359,0,0,1,74.41,81.34" transform="translate(-44.032 -49.808)"/>
    <path id="Path_614" data-name="Path 614" d="M29.473,77.984a3.376,3.376,0,0,1,3.748-3.023,3.338,3.338,0,0,1,3.339,3.408,3.474,3.474,0,0,1-3.68,2.959,3.292,3.292,0,0,1-3.407-3.345" transform="translate(-18.322 -49.796)"/>
  </g>
</svg>
