<svg xmlns="http://www.w3.org/2000/svg" width="139.529" height="42.429" viewBox="0 0 139.529 42.429">
  <g id="Group_37533" data-name="Group 37533" transform="translate(-8.039 -6.975)">
    <g id="Group_37609" data-name="Group 37609" transform="translate(0 0)">
      <path id="Path_891" data-name="Path 891" d="M134.425,56.408h-97.1a21.215,21.215,0,0,1,0-42.429h97.1a21.215,21.215,0,1,1,0,42.429" transform="translate(-8.072 -7.004)" fill="#1a1718"/>
      <path id="Path_893" data-name="Path 893" d="M143.028,31.186h4.127v.944h-4.127Zm1.074.757a3.027,3.027,0,0,1-.509-.748,1.864,1.864,0,0,1-.167-.781,1.919,1.919,0,0,1,.167-.806,1.955,1.955,0,0,1,.46-.635,2.149,2.149,0,0,1,.68-.419,2.224,2.224,0,0,1,.818-.151,2.541,2.541,0,0,1,.655.085,1.765,1.765,0,0,1,.557.248l-.489.789a1.443,1.443,0,0,0-.329-.134,1.356,1.356,0,0,0-.354-.045,1.151,1.151,0,0,0-.562.134.957.957,0,0,0-.378.37,1.082,1.082,0,0,0-.134.545,1.193,1.193,0,0,0,.093.472,1.683,1.683,0,0,0,.305.456Z" transform="translate(-71.659 -14.23)" fill="#fff"/>
      <path id="Path_894" data-name="Path 894" d="M153.3,24.342h1.082V30.1H153.3Zm1.083,4.81h.928V30.1h-.928Zm.928.944v-.944a.1.1,0,0,1,.077.032.274.274,0,0,1,.049.1.759.759,0,0,1,.028.151c.005.057.008.121.008.191s0,.136-.008.2a.683.683,0,0,1-.028.151.269.269,0,0,1-.049.094.1.1,0,0,1-.077.032" transform="translate(-76.807 -12.196)" fill="#fff"/>
      <path id="Path_895" data-name="Path 895" d="M157.169,31.771a.1.1,0,0,1-.077-.032.269.269,0,0,1-.049-.094.681.681,0,0,1-.028-.151c-.005-.059-.008-.125-.008-.2a1.578,1.578,0,0,1,.016-.248.464.464,0,0,1,.053-.163.107.107,0,0,1,.093-.061Zm0,0v-.944h4.24l-.594.578V29.76a1.865,1.865,0,0,0-.1-.675.622.622,0,0,0-.334-.35,1.629,1.629,0,0,0-.651-.106,4.854,4.854,0,0,0-.672.045,2.347,2.347,0,0,0-.508.118l.676-.635a4.5,4.5,0,0,0-.09.468c-.027.187-.051.39-.073.606s-.032.426-.032.627.009.394.028.594.042.38.069.537.046.266.057.325l-1.033.285q-.033-.115-.086-.379a5.89,5.89,0,0,1-.085-.615q-.033-.35-.032-.748t.036-.777a6.853,6.853,0,0,1,.1-.684c.041-.2.074-.367.1-.492a3.512,3.512,0,0,1,.606-.146,5.374,5.374,0,0,1,.924-.073,3.152,3.152,0,0,1,1.217.2,1.417,1.417,0,0,1,.725.655,2.625,2.625,0,0,1,.24,1.225v2Zm2.547,2.157a6.9,6.9,0,0,1-.924-.057,5.628,5.628,0,0,1-.606-.106c-.027-.1-.061-.223-.1-.374a3.888,3.888,0,0,1-.1-.517,4.68,4.68,0,0,1-.036-.59,4.583,4.583,0,0,1,.032-.565,3.269,3.269,0,0,1,.085-.46c.035-.131.064-.226.086-.285l1.009.342a1.183,1.183,0,0,0-.053.228c-.019.114-.037.24-.053.379a3.272,3.272,0,0,0-.024.37,3.774,3.774,0,0,0,.024.407,3.944,3.944,0,0,0,.069.424,2.93,2.93,0,0,0,.093.342l-.7-.611a2.8,2.8,0,0,0,.516.094,6.444,6.444,0,0,0,.7.036,2.8,2.8,0,0,0,.667-.061.5.5,0,0,0,.325-.212.782.782,0,0,0,.09-.4V30.827H161.9v1.522a1.591,1.591,0,0,1-.24.924,1.342,1.342,0,0,1-.725.5,4.05,4.05,0,0,1-1.217.155m2.182-3.1h.854v.944H161.9Zm.854.944v-.944a.111.111,0,0,1,.081.032.207.207,0,0,1,.049.1,1.022,1.022,0,0,1,.024.151c.005.057.008.121.008.191s0,.136-.008.2a.9.9,0,0,1-.024.151.2.2,0,0,1-.049.094.109.109,0,0,1-.081.032" transform="translate(-78.662 -13.871)" fill="#fff"/>
      <path id="Path_896" data-name="Path 896" d="M168.358,30.087a.1.1,0,0,1-.077-.032.269.269,0,0,1-.049-.094.681.681,0,0,1-.028-.151c-.005-.059-.008-.125-.008-.2a1.585,1.585,0,0,1,.016-.248.464.464,0,0,1,.053-.163.108.108,0,0,1,.094-.061Zm0,0v-.944h1.929l-.635.529V26h1.082v4.086Zm.578-5.762h1.05v.928h-1.05Zm1.481,0h1.05v.928h-1.05Zm.317,4.818h1.017v.944h-1.017Zm1.017.944v-.944a.1.1,0,0,1,.073.032.212.212,0,0,1,.049.1,1.433,1.433,0,0,1,.028.151,1.383,1.383,0,0,1,.012.191,1.471,1.471,0,0,1-.012.2,1.186,1.186,0,0,1-.028.151.232.232,0,0,1-.045.094.1.1,0,0,1-.077.032" transform="translate(-84.268 -12.187)" fill="#fff"/>
      <path id="Path_897" data-name="Path 897" d="M175.16,30.087a.1.1,0,0,1-.077-.032.268.268,0,0,1-.049-.094A.687.687,0,0,1,175,29.81c-.005-.059-.008-.125-.008-.2a1.585,1.585,0,0,1,.016-.248.475.475,0,0,1,.053-.163.108.108,0,0,1,.094-.061Zm0,0v-.944h1.489l-.635.529V26H177.1v4.086Zm.854-5.762H177.1v.928h-1.091Z" transform="translate(-87.676 -12.187)" fill="#fff"/>
      <rect id="Rectangle_2405" data-name="Rectangle 2405" width="1.082" height="5.754" transform="translate(90.755 12.146)" fill="#fff"/>
      <path id="Path_898" data-name="Path 898" d="M192.207,32.114a3.088,3.088,0,0,1-.981-.151,2.546,2.546,0,0,1-.785-.415,1.967,1.967,0,0,1-.525-.627,1.658,1.658,0,0,1-.191-.785c0-.1.008-.237.024-.4s.039-.35.069-.561.063-.437.1-.676l1.074.147q-.081.513-.13.911a5.308,5.308,0,0,0-.049.562.908.908,0,0,0,.171.545,1.128,1.128,0,0,0,.485.37,1.861,1.861,0,0,0,.736.134h2.3a1.053,1.053,0,0,0,.789-.268,1.079,1.079,0,0,0,.26-.781v-.309h1.082v.309a2.017,2.017,0,0,1-.26,1.033,1.845,1.845,0,0,1-.737.7,2.36,2.36,0,0,1-1.135.256Zm-.277.748h1.05v.928h-1.05Zm1.481,0h1.05v.928h-1.05ZM195.2,30.1a3.126,3.126,0,0,1-.72-.081,1.926,1.926,0,0,1-.655-.293l.618-.781a1.413,1.413,0,0,0,.232.134.809.809,0,0,0,.228.061,2.325,2.325,0,0,0,.3.016H197V30.1Zm.643,0a.1.1,0,0,1-.073-.032.2.2,0,0,1-.049-.094,1.186,1.186,0,0,1-.028-.151,1.393,1.393,0,0,1-.012-.2,1.583,1.583,0,0,1,.016-.248.464.464,0,0,1,.053-.163.108.108,0,0,1,.094-.061Zm0-.944h.928V30.1h-.928Zm.928-4.81h1.082V30.1h-1.082ZM197,30.1v-.944a.1.1,0,0,1,.073.032.211.211,0,0,1,.048.1,1.437,1.437,0,0,1,.028.151,1.381,1.381,0,0,1,.012.191,1.47,1.47,0,0,1-.012.2,1.188,1.188,0,0,1-.028.151.206.206,0,0,1-.048.094A.1.1,0,0,1,197,30.1m.854-.944h.863V30.1h-.863Zm.863.944v-.944a.1.1,0,0,1,.073.032.212.212,0,0,1,.049.1,1.437,1.437,0,0,1,.028.151,1.388,1.388,0,0,1,.012.191,1.476,1.476,0,0,1-.012.2,1.188,1.188,0,0,1-.028.151.206.206,0,0,1-.049.094.1.1,0,0,1-.073.032" transform="translate(-95.055 -12.196)" fill="#fff"/>
      <path id="Path_899" data-name="Path 899" d="M207.584,31.771a.1.1,0,0,1-.077-.033.271.271,0,0,1-.049-.093.686.686,0,0,1-.028-.151c-.006-.06-.009-.125-.009-.2a1.591,1.591,0,0,1,.016-.248.465.465,0,0,1,.053-.163.108.108,0,0,1,.094-.061Zm0-.944h4.053v.944h-4.053Zm1.53.814a2.773,2.773,0,0,1-.623-.83,2.238,2.238,0,0,1-.028-1.819,2.143,2.143,0,0,1,.489-.7,2.176,2.176,0,0,1,.72-.452,2.385,2.385,0,0,1,.867-.159,2.834,2.834,0,0,1,.513.049,3.682,3.682,0,0,1,.512.13l-.325.887a2.843,2.843,0,0,0-.338-.089,1.7,1.7,0,0,0-.321-.032,1.251,1.251,0,0,0-.635.159,1.1,1.1,0,0,0-.428.436,1.306,1.306,0,0,0-.151.635,1.408,1.408,0,0,0,.135.61,1.612,1.612,0,0,0,.386.513Z" transform="translate(-103.921 -13.871)" fill="#fff"/>
      <path id="Path_900" data-name="Path 900" d="M223.865,36.29a3.083,3.083,0,0,1-.98-.151,2.549,2.549,0,0,1-.785-.415,1.965,1.965,0,0,1-.525-.627,1.653,1.653,0,0,1-.192-.785c0-.1.008-.237.024-.4s.039-.35.069-.561.064-.437.1-.676l1.074.147q-.082.513-.13.911a5.445,5.445,0,0,0-.049.562.9.9,0,0,0,.171.545,1.129,1.129,0,0,0,.484.37,1.863,1.863,0,0,0,.737.134h2.3a1.053,1.053,0,0,0,.789-.268,1.079,1.079,0,0,0,.26-.781v-.309H228.3V34.3a2.016,2.016,0,0,1-.26,1.033,1.845,1.845,0,0,1-.736.7,2.359,2.359,0,0,1-1.135.256Zm-.276.748h1.05v.928h-1.05Zm1.481,0h1.05v.928h-1.05Zm1.791-2.767a3.127,3.127,0,0,1-.721-.081,1.931,1.931,0,0,1-.655-.293l.618-.781a1.435,1.435,0,0,0,.232.134.809.809,0,0,0,.228.061,2.333,2.333,0,0,0,.3.016h1.8v.944Zm1.8,0v-.944a.1.1,0,0,1,.073.032.212.212,0,0,1,.049.1c.01.043.02.094.028.151a1.386,1.386,0,0,1,.012.191,1.474,1.474,0,0,1-.012.2,1.285,1.285,0,0,1-.028.151.206.206,0,0,1-.049.094.1.1,0,0,1-.073.032" transform="translate(-110.916 -16.371)" fill="#fff"/>
      <path id="Path_901" data-name="Path 901" d="M232.181,30.087a.1.1,0,0,1-.077-.032.269.269,0,0,1-.049-.094.688.688,0,0,1-.028-.151c-.005-.059-.008-.125-.008-.2a1.587,1.587,0,0,1,.016-.248.474.474,0,0,1,.053-.163.108.108,0,0,1,.094-.061Zm0,0v-.944h3.8l-.334.285V26.71l.277.236H234.9a1.424,1.424,0,0,0-.562.09.52.52,0,0,0-.285.329,2.21,2.21,0,0,0-.081.68,2.3,2.3,0,0,0,.081.712.478.478,0,0,0,.285.309,1.624,1.624,0,0,0,.562.077v.846a2.865,2.865,0,0,1-1.14-.2,1.3,1.3,0,0,1-.663-.623,2.514,2.514,0,0,1-.216-1.127,2.619,2.619,0,0,1,.216-1.123,1.456,1.456,0,0,1,.663-.688A2.467,2.467,0,0,1,234.9,26h1.839v4.086Zm1.571-5.762h1.05v.928h-1.05Zm1.481,0h1.05v.928h-1.05Z" transform="translate(-116.245 -12.187)" fill="#fff"/>
      <path id="Path_902" data-name="Path 902" d="M244.087,24.342h1.082V30.1h-1.082Zm1.083,4.81h.928V30.1h-.928Zm.928.944v-.944a.1.1,0,0,1,.077.032.274.274,0,0,1,.049.1.759.759,0,0,1,.028.151c.005.057.008.121.008.191s0,.136-.008.2a.683.683,0,0,1-.028.151.269.269,0,0,1-.049.094.1.1,0,0,1-.077.032" transform="translate(-122.291 -12.196)" fill="#fff"/>
      <path id="Path_903" data-name="Path 903" d="M247.953,31.771a.1.1,0,0,1-.077-.032.269.269,0,0,1-.049-.094.688.688,0,0,1-.028-.151c-.005-.059-.008-.125-.008-.2a1.585,1.585,0,0,1,.016-.248.475.475,0,0,1,.053-.163.108.108,0,0,1,.094-.061Zm0,0v-.944h1.489l-.635.529V27.685H249.9v4.086Zm.854.806H249.9V33.5h-1.091Z" transform="translate(-124.147 -13.871)" fill="#fff"/>
      <path id="Path_904" data-name="Path 904" d="M144.936,71.05a7.68,7.68,0,0,1-3.24-.656,5.417,5.417,0,0,1-2.239-1.823,4.518,4.518,0,0,1-.812-2.646q0-.416.062-1.1t.177-1.541q.115-.855.25-1.74t.26-1.719l2.75.375q-.229,1.4-.385,2.552t-.24,1.969q-.083.813-.083,1.188a2.47,2.47,0,0,0,.417,1.438,2.762,2.762,0,0,0,1.2.948,4.665,4.665,0,0,0,1.886.343,4.4,4.4,0,0,0,1.854-.333,2.2,2.2,0,0,0,1.031-.917,2.668,2.668,0,0,0,.323-1.312V55.423h2.792V66.07a4.484,4.484,0,0,1-.781,2.625,5.1,5.1,0,0,1-2.136,1.74,7.386,7.386,0,0,1-3.083.615m5.958-5.167.042-2.417H161.27l-2.354,2.042V61.132a4.715,4.715,0,0,0-.323-1.907,2.2,2.2,0,0,0-.907-1.052,2.816,2.816,0,0,0-1.417-.333,4.15,4.15,0,0,0-1.7.354,6.477,6.477,0,0,0-1.49.916,11.726,11.726,0,0,0-1.271,1.209q-.583.647-1.042,1.24t-.791,1.01l-.646-2.021q.812-.979,1.469-1.792t1.25-1.437a6.811,6.811,0,0,1,1.239-1.042,5.2,5.2,0,0,1,1.438-.636,6.917,6.917,0,0,1,1.833-.219,5.416,5.416,0,0,1,2.355.469,4.28,4.28,0,0,1,1.594,1.281,5.38,5.38,0,0,1,.9,1.834,7.961,7.961,0,0,1,.281,2.125v4.75Zm2.875-14.731h2.792v2.375H153.77Z" transform="translate(-69.463 -25.628)" fill="#c8643e"/>
      <path id="Path_905" data-name="Path 905" d="M188.1,75.338c-.181,0-.375-.007-.584-.021s-.423-.034-.646-.062l.1-2.375c.222.014.434.027.635.042s.351.02.448.02a1.554,1.554,0,0,0,1.3-.646,2.95,2.95,0,0,0,.49-1.813V59.712h2.792V70.484A5.4,5.4,0,0,1,192.068,73a4.243,4.243,0,0,1-1.594,1.719,4.519,4.519,0,0,1-2.375.614m4.042-7.584h2.688v2.417h-2.688Zm2.688,2.417V67.754a.251.251,0,0,1,.2.083.7.7,0,0,1,.125.25,1.9,1.9,0,0,1,.073.385c.014.146.021.309.021.49s-.007.347-.021.5a1.726,1.726,0,0,1-.073.385.694.694,0,0,1-.125.24.251.251,0,0,1-.2.083" transform="translate(-93.625 -29.917)" fill="#c8643e"/>
      <path id="Path_906" data-name="Path 906" d="M202.4,70.171a.251.251,0,0,1-.2-.083.7.7,0,0,1-.125-.24,1.781,1.781,0,0,1-.073-.385q-.02-.23-.02-.5a4.15,4.15,0,0,1,.041-.635,1.177,1.177,0,0,1,.136-.417.276.276,0,0,1,.24-.157Zm0,0V67.754h4.417a4.485,4.485,0,0,0,1.729-.344,6.007,6.007,0,0,0,1.532-.917,7.58,7.58,0,0,0,1.229-1.271,6.383,6.383,0,0,0,.833-1.427,3.605,3.605,0,0,0,.3-1.375V61.087l1.333,2.209a9.9,9.9,0,0,0-2.208-.875,8.01,8.01,0,0,0-4.282,0,9.448,9.448,0,0,0-2.2.875l1.334-2.209V62.42a3.6,3.6,0,0,0,.3,1.375,6.606,6.606,0,0,0,.823,1.427,7.054,7.054,0,0,0,1.229,1.271,6.179,6.179,0,0,0,1.542.917,4.432,4.432,0,0,0,1.708.344h4.292v2.417H212.9a8.746,8.746,0,0,1-3.042-.521,9.881,9.881,0,0,1-2.563-1.385,10.879,10.879,0,0,1-1.968-1.9,8.912,8.912,0,0,1-1.261-2.063,4.881,4.881,0,0,1-.438-1.886V61.233a10.952,10.952,0,0,1,1.907-.833,14.411,14.411,0,0,1,2.021-.51,9.958,9.958,0,0,1,3.74,0,14.52,14.52,0,0,1,2.01.51,10.951,10.951,0,0,1,1.907.833V62.42a4.872,4.872,0,0,1-.438,1.886,8.908,8.908,0,0,1-1.26,2.063,10.9,10.9,0,0,1-1.969,1.9,9.88,9.88,0,0,1-2.563,1.385,8.746,8.746,0,0,1-3.042.521Zm13.918,0V67.754a.282.282,0,0,1,.208.083.534.534,0,0,1,.125.25,2.624,2.624,0,0,1,.062.385c.014.146.021.309.021.49s-.007.347-.021.5a2.343,2.343,0,0,1-.062.385.523.523,0,0,1-.125.24.282.282,0,0,1-.208.083" transform="translate(-101.198 -29.917)" fill="#c8643e"/>
      <path id="Path_907" data-name="Path 907" d="M230.295,65.883a.251.251,0,0,1-.2-.083.7.7,0,0,1-.125-.24,1.724,1.724,0,0,1-.073-.386q-.02-.229-.02-.5a4.1,4.1,0,0,1,.041-.636,1.173,1.173,0,0,1,.136-.417.276.276,0,0,1,.24-.156Zm0-2.417h2.354v2.417h-2.354Zm2.354-12.313h2.792V65.883h-2.792Z" transform="translate(-115.172 -25.628)" fill="#c8643e"/>
      <rect id="Rectangle_2406" data-name="Rectangle 2406" width="2.771" height="14.731" transform="translate(123.602 25.524)" fill="#c8643e"/>
      <line id="Line_26" data-name="Line 26" x2="57.042" transform="translate(69.303 22.999)" fill="none" stroke="#fff" stroke-miterlimit="10" stroke-width="0.75"/>
      <path id="Path_908" data-name="Path 908" d="M53.937,61.6A15.489,15.489,0,1,1,69.427,46.107,15.507,15.507,0,0,1,53.937,61.6m0-28.112A12.622,12.622,0,1,0,66.56,46.107,12.637,12.637,0,0,0,53.937,33.485" transform="translate(-19.263 -15.34)" fill="#fff"/>
      <rect id="Rectangle_2407" data-name="Rectangle 2407" width="3.389" height="4.894" transform="translate(32.98 11.817)" fill="#fff"/>
      <rect id="Rectangle_2408" data-name="Rectangle 2408" width="8.738" height="3.389" transform="translate(30.305 10.123)" fill="#fff"/>
      <path id="Path_909" data-name="Path 909" d="M66.5,55.131,63.242,41.095l.4-.112,4.619,13.649Z" transform="translate(-31.685 -20.533)" fill="#fff"/>
      <path id="Path_910" data-name="Path 910" d="M69.483,59.964a1.689,1.689,0,1,1-1.689-1.689,1.689,1.689,0,0,1,1.689,1.689" transform="translate(-33.12 -29.197)" fill="#fff"/>
    </g>
  </g>
</svg>
