<svg id="Group_37531" data-name="Group 37531" xmlns="http://www.w3.org/2000/svg" xmlns:xlink="http://www.w3.org/1999/xlink" width="173" height="44.359" viewBox="0 0 173 44.359">
  <defs>
    <clipPath id="clip-path">
      <rect id="Rectangle_2397" data-name="Rectangle 2397" width="173" height="44.359" fill="none"/>
    </clipPath>
  </defs>
  <g id="Group_37530" data-name="Group 37530" clip-path="url(#clip-path)">
    <path id="Path_864" data-name="Path 864" d="M160.119,121.892h.371v2.5c.385-.372,1.76-1.664,2.62-2.5h.5l-2.159,2.049,2.283,2.764h-.461l-2.09-2.524-.688.605v1.919h-.371Z" transform="translate(-113.094 -86.093)"/>
    <path id="Path_865" data-name="Path 865" d="M178.576,128.137c.007.887.454,1.437,1.114,1.437a.968.968,0,0,0,.99-.646h.351a1.318,1.318,0,0,1-1.355.969c-1.045,0-1.451-.9-1.451-1.774,0-.984.488-1.829,1.492-1.829a1.421,1.421,0,0,1,1.4,1.561c0,.1,0,.193-.007.282Zm2.18-.3a1.086,1.086,0,0,0-1.052-1.217c-.708,0-1.031.495-1.107,1.217Z" transform="translate(-125.883 -89.203)"/>
    <path id="Path_866" data-name="Path 866" d="M195.136,128.137c.007.887.454,1.437,1.114,1.437a.968.968,0,0,0,.99-.646h.351a1.319,1.319,0,0,1-1.355.969c-1.045,0-1.451-.9-1.451-1.774,0-.984.488-1.829,1.492-1.829a1.421,1.421,0,0,1,1.4,1.561c0,.1,0,.193-.007.282Zm2.18-.3a1.086,1.086,0,0,0-1.052-1.217c-.708,0-1.031.495-1.107,1.217Z" transform="translate(-137.579 -89.203)"/>
    <path id="Path_867" data-name="Path 867" d="M212.492,129.306v1.884h-.344v-3.968c0-.282,0-.584-.007-.846h.337c.014.131.014.337.014.619a1.263,1.263,0,0,1,1.21-.7c.811,0,1.375.681,1.375,1.712,0,1.238-.66,1.891-1.492,1.891a1.126,1.126,0,0,1-1.093-.591m2.221-1.286c0-.8-.385-1.4-1.066-1.4-.832,0-1.176.522-1.176,1.458s.268,1.492,1.128,1.492c.715,0,1.114-.605,1.114-1.554" transform="translate(-149.837 -89.203)"/>
    <path id="Path_868" data-name="Path 868" d="M242.4,128.8a1.323,1.323,0,0,1-1.334,1.093c-.859,0-1.471-.64-1.471-1.788,0-.942.5-1.815,1.513-1.815a1.23,1.23,0,0,1,1.293,1.1h-.351a.929.929,0,0,0-.949-.777c-.729,0-1.141.619-1.141,1.478,0,.819.385,1.478,1.107,1.478a.972.972,0,0,0,.984-.77Z" transform="translate(-169.227 -89.203)"/>
    <path id="Path_869" data-name="Path 869" d="M258.39,129.161a3.944,3.944,0,0,0,.048.653h-.33a2.245,2.245,0,0,1-.062-.53,1.132,1.132,0,0,1-1.128.612,1.024,1.024,0,0,1-1.142-1.031c0-.756.584-1.1,1.616-1.1h.653v-.351c0-.344-.1-.8-.887-.8-.695,0-.8.365-.873.646h-.344a1.067,1.067,0,0,1,1.224-.963c.784,0,1.224.33,1.224,1.087Zm-.337-1.1h-.674c-.763,0-1.238.2-1.238.791a.718.718,0,0,0,.791.729c.984,0,1.121-.653,1.121-1.4Z" transform="translate(-180.658 -89.202)"/>
    <rect id="Rectangle_2394" data-name="Rectangle 2394" width="0.344" height="5.068" transform="translate(80.244 35.544)"/>
    <path id="Path_870" data-name="Path 870" d="M282.908,127.263c0-.3,0-.619-.007-.887h.337c.007.117.021.413.014.612a1.075,1.075,0,0,1,1.031-.694.976.976,0,0,1,1,.681,1.17,1.17,0,0,1,1.121-.681c.53,0,1.08.3,1.08,1.258v2.262h-.344v-2.221c0-.461-.165-.963-.8-.963-.667,0-.97.536-.97,1.2v1.98h-.337V127.6c0-.5-.151-.969-.784-.969-.667,0-.99.591-.99,1.293v1.891h-.344Z" transform="translate(-199.816 -89.203)"/>
    <path id="Path_871" data-name="Path 871" d="M319.547,129.161a3.944,3.944,0,0,0,.048.653h-.33a2.265,2.265,0,0,1-.062-.53,1.132,1.132,0,0,1-1.128.612,1.024,1.024,0,0,1-1.142-1.031c0-.756.584-1.1,1.616-1.1h.653v-.351c0-.344-.1-.8-.887-.8-.695,0-.8.365-.873.646H317.1a1.067,1.067,0,0,1,1.224-.963c.784,0,1.224.33,1.224,1.087Zm-.337-1.1h-.674c-.763,0-1.238.2-1.238.791a.718.718,0,0,0,.791.729c.983,0,1.121-.653,1.121-1.4Z" transform="translate(-223.854 -89.202)"/>
    <path id="Path_872" data-name="Path 872" d="M334.368,127.243c0-.3,0-.591-.007-.867h.337c.014.11.02.557.014.653a1.122,1.122,0,0,1,1.141-.736c.612,0,1.156.344,1.156,1.293v2.228h-.344v-2.173c0-.612-.254-1.011-.852-1.011-.819,0-1.1.681-1.1,1.43v1.754h-.344Z" transform="translate(-236.162 -89.203)"/>
    <path id="Path_873" data-name="Path 873" d="M353.9,121.025V125.1c0,.33,0,.646.007.99h-.33c-.014-.083-.021-.406-.021-.578a1.126,1.126,0,0,1-1.155.66c-.894,0-1.43-.729-1.43-1.76,0-1.059.585-1.843,1.52-1.843.688,0,.963.3,1.066.516v-2.063Zm-2.565,3.377c0,.942.488,1.451,1.079,1.451.908,0,1.155-.626,1.155-1.561,0-.887-.213-1.4-1.093-1.4-.681,0-1.141.543-1.141,1.506" transform="translate(-247.891 -85.481)"/>
    <path id="Path_874" data-name="Path 874" d="M379.4,128.866a.91.91,0,0,0,.977.715c.612,0,.86-.282.86-.667s-.165-.584-.935-.77c-.887-.213-1.107-.481-1.107-.935,0-.474.357-.915,1.135-.915a1.1,1.1,0,0,1,1.2.963h-.344a.811.811,0,0,0-.873-.646c-.6,0-.77.3-.77.571,0,.316.165.474.846.639.969.234,1.21.55,1.21,1.066,0,.626-.509,1.011-1.231,1.011a1.194,1.194,0,0,1-1.32-1.031Z" transform="translate(-267.727 -89.203)"/>
    <path id="Path_875" data-name="Path 875" d="M393.5,123.995h.64v-1.073h.344v1.073h.818v.323h-.818v2.235c0,.385.082.605.412.605a1.312,1.312,0,0,0,.358-.041v.3a1.216,1.216,0,0,1-.427.062c-.44,0-.687-.22-.687-.77v-2.393h-.64Z" transform="translate(-277.935 -86.821)"/>
    <path id="Path_876" data-name="Path 876" d="M408.46,129.161a3.941,3.941,0,0,0,.048.653h-.33a2.253,2.253,0,0,1-.062-.53,1.131,1.131,0,0,1-1.128.612,1.023,1.023,0,0,1-1.141-1.031c0-.756.584-1.1,1.616-1.1h.653v-.351c0-.344-.1-.8-.887-.8-.695,0-.8.365-.873.646h-.344a1.068,1.068,0,0,1,1.224-.963c.784,0,1.224.33,1.224,1.087Zm-.337-1.1h-.674c-.763,0-1.238.2-1.238.791a.718.718,0,0,0,.791.729c.983,0,1.121-.653,1.121-1.4Z" transform="translate(-286.654 -89.202)"/>
    <path id="Path_877" data-name="Path 877" d="M421.963,126.575c.695,1.967,1,2.778,1.114,3.15h.007c.137-.419.413-1.217,1.08-3.15h.357l-1.292,3.638c-.365,1.018-.612,1.245-1.231,1.245a2.284,2.284,0,0,1-.316-.021v-.344a2.257,2.257,0,0,0,.31.021c.495,0,.653-.241.908-.949l-1.314-3.589Z" transform="translate(-297.77 -89.401)"/>
    <path id="Path_878" data-name="Path 878" d="M451.163,128.8a1.323,1.323,0,0,1-1.334,1.093c-.86,0-1.472-.639-1.472-1.788,0-.942.5-1.815,1.513-1.815a1.23,1.23,0,0,1,1.293,1.1h-.351a.929.929,0,0,0-.949-.777c-.729,0-1.141.619-1.141,1.478,0,.819.385,1.478,1.107,1.478a.972.972,0,0,0,.984-.77Z" transform="translate(-316.679 -89.203)"/>
    <rect id="Rectangle_2395" data-name="Rectangle 2395" width="0.344" height="5.068" transform="translate(136.659 35.544)"/>
    <path id="Path_879" data-name="Path 879" d="M476.6,129.161a3.941,3.941,0,0,0,.048.653h-.33a2.258,2.258,0,0,1-.062-.53,1.131,1.131,0,0,1-1.128.612,1.023,1.023,0,0,1-1.141-1.031c0-.756.584-1.1,1.616-1.1h.653v-.351c0-.344-.1-.8-.887-.8-.695,0-.8.365-.873.646h-.344a1.068,1.068,0,0,1,1.224-.963c.784,0,1.224.33,1.224,1.087Zm-.337-1.1h-.674c-.763,0-1.238.2-1.238.791a.718.718,0,0,0,.791.729c.983,0,1.121-.653,1.121-1.4Z" transform="translate(-334.779 -89.202)"/>
    <path id="Path_880" data-name="Path 880" d="M490.472,128.866a.91.91,0,0,0,.977.715c.612,0,.86-.282.86-.667s-.165-.584-.935-.77c-.887-.213-1.107-.481-1.107-.935,0-.474.358-.915,1.135-.915a1.1,1.1,0,0,1,1.2.963h-.344a.811.811,0,0,0-.873-.646c-.6,0-.77.3-.77.571,0,.316.165.474.846.639.969.234,1.21.55,1.21,1.066,0,.626-.509,1.011-1.231,1.011a1.194,1.194,0,0,1-1.32-1.031Z" transform="translate(-346.177 -89.203)"/>
    <path id="Path_881" data-name="Path 881" d="M505.837,128.866a.91.91,0,0,0,.977.715c.612,0,.86-.282.86-.667s-.165-.584-.935-.77c-.887-.213-1.107-.481-1.107-.935,0-.474.357-.915,1.135-.915a1.1,1.1,0,0,1,1.2.963h-.344a.811.811,0,0,0-.873-.646c-.6,0-.77.3-.77.571,0,.316.165.474.846.639.969.234,1.21.55,1.21,1.066,0,.626-.509,1.011-1.231,1.011a1.194,1.194,0,0,1-1.32-1.031Z" transform="translate(-357.03 -89.203)"/>
    <path id="Path_882" data-name="Path 882" d="M520.807,126.575c.695,1.967,1,2.778,1.114,3.15h.007c.138-.419.413-1.217,1.08-3.15h.357l-1.293,3.638c-.365,1.018-.612,1.245-1.231,1.245a2.287,2.287,0,0,1-.316-.021v-.344a2.257,2.257,0,0,0,.31.021c.495,0,.653-.241.908-.949l-1.314-3.589Z" transform="translate(-367.584 -89.401)"/>
    <rect id="Rectangle_2396" data-name="Rectangle 2396" width="0.344" height="0.887" transform="translate(157.261 39.725)"/>
    <path id="Path_883" data-name="Path 883" d="M0,4.839,7.965,0,25.406,9.779v9.88l-8.569,4.335-.3-9.477Z" transform="translate(0 0)" fill="#d27a51"/>
    <path id="Path_884" data-name="Path 884" d="M0,50.461,24.8,64.777l-7.965,5.041L0,59.635Z" transform="translate(0 -35.641)" fill="#d27a51"/>
    <path id="Path_885" data-name="Path 885" d="M0,104.256l8.508-5.037v9.674L0,114.439Z" transform="translate(0 -70.08)" fill="#d27a51"/>
    <path id="Path_886" data-name="Path 886" d="M119.567,43.418V49.46a5.116,5.116,0,0,0,.838,3.257q.836,1.019,4.414,1.02v.624H110.694v-.594q2.739,0,3.6-1.035a5.077,5.077,0,0,0,.86-3.272V38.015a5.079,5.079,0,0,0-.86-3.272q-.859-1.034-3.6-1.035v-.593h23.27v9.192h-.578q-1.066-5.128-3.2-6.879t-7.237-1.75h-3.379v9.207a7.242,7.242,0,0,0,4.224-.943q1.27-.944,2.123-4.931h.563V49.217h-.563q-.852-3.987-2.351-4.893a7.682,7.682,0,0,0-4-.905" transform="translate(-78.184 -23.389)"/>
    <path id="Path_887" data-name="Path 887" d="M215.143,33.114q4.961,0,6.9,1.614a4.6,4.6,0,0,1,1.94,3.53v.669q0,2.146-2.671,3.592a13.613,13.613,0,0,1-6.552,1.445h-2.709a41.184,41.184,0,0,0,3.668,1.956,17.953,17.953,0,0,0,2.907.905l3.653,5.129a3.96,3.96,0,0,0,1.933,1.476,8.449,8.449,0,0,0,2.526.335v.594h-8.051l-7.381-10.4h-4.672v5.494a5.078,5.078,0,0,0,.86,3.272q.859,1.035,3.6,1.035v.594H197.7v-.594q2.74,0,3.6-1.035a5.081,5.081,0,0,0,.86-3.272V38.014a5.084,5.084,0,0,0-.86-3.272q-.86-1.034-3.6-1.035v-.593ZM206.635,43.4H212.1q4.079,0,5.433-1.347a4.452,4.452,0,0,0,1.355-3.28V38.3a4.371,4.371,0,0,0-1.4-3.288q-1.4-1.339-5.585-1.339h-5.266Z" transform="translate(-139.638 -23.389)"/>
    <path id="Path_888" data-name="Path 888" d="M315.723,31.715h.669l8.888,19.268a2.918,2.918,0,0,0,1.613,1.453,6.56,6.56,0,0,0,2.131.342v.594H316.652v-.594a9.171,9.171,0,0,0,3.28-.342,1.134,1.134,0,0,0,.646-1.073,20.971,20.971,0,0,0-1.872-4.642h-8.858l-.928,2.085a3.727,3.727,0,0,0-.153,1.248,2.808,2.808,0,0,0,1,2.062,3.281,3.281,0,0,0,2.062.662v.594h-8.721v-.594q3.713,0,6.484-7.2Zm-5.661,14.443h8.34l-4.185-9.36Z" transform="translate(-214.087 -22.401)"/>
    <path id="Path_889" data-name="Path 889" d="M415.324,33.114q6.21,0,9.551,3.387a10.141,10.141,0,0,1,3.34,7.16v.67a8.843,8.843,0,0,1-3.592,7.131,13.065,13.065,0,0,1-8.462,2.9H400.424v-.594q2.952,0,3.813-1.035a5.084,5.084,0,0,0,.86-3.272V38.014a5.085,5.085,0,0,0-.86-3.272q-.861-1.034-3.813-1.035v-.593Zm-5.768.563V53.736H413q6.27,0,8.1-2.77a11.59,11.59,0,0,0,1.826-6.529V43.3q0-4.673-2.26-7.145t-7.815-2.473Z" transform="translate(-282.823 -23.389)"/>
    <path id="Path_890" data-name="Path 890" d="M513.421,31.715h.669l8.888,19.268a2.918,2.918,0,0,0,1.613,1.453,6.561,6.561,0,0,0,2.131.342v.594H514.35v-.594a9.171,9.171,0,0,0,3.28-.342,1.134,1.134,0,0,0,.646-1.073,20.948,20.948,0,0,0-1.872-4.642h-8.858l-.928,2.085a3.727,3.727,0,0,0-.153,1.248,2.808,2.808,0,0,0,1,2.062,3.282,3.282,0,0,0,2.062.662v.594H500.8v-.594q3.713,0,6.483-7.2Zm-5.661,14.443h8.34l-4.185-9.36Z" transform="translate(-353.723 -22.401)"/>
  </g>
</svg>
