<svg xmlns="http://www.w3.org/2000/svg" xmlns:xlink="http://www.w3.org/1999/xlink" width="137.091" height="124.469" viewBox="0 0 137.091 124.469">
  <defs>
    <clipPath id="clip-path">
      <rect id="Rectangle_2330" data-name="Rectangle 2330" width="137.091" height="124.469" fill="none"/>
    </clipPath>
    <clipPath id="clip-path-2">
      <path id="Path_758" data-name="Path 758" d="M169.327,157.505a40.309,40.309,0,0,1-34.364,29.25c-3.085.347-3.08.348-2.18-2.571.512-1.66,1-3.327,1.574-5.215-.412.2-.565.265-.711.345q-10.571,5.828-21.136,11.665c-1.2.666-1.187.709,0,1.516q7.344,4.982,14.694,9.958,4.679,2.884,9.359,5.766a.935.935,0,0,1,.488.854,36.136,36.136,0,0,0,8.212-1.347l-12.753-11.559a1.1,1.1,0,0,1,.9-.271,2.393,2.393,0,0,0,.281,0c12.9-1.154,24.109-5.958,33.059-15.5a47.051,47.051,0,0,0,11.469-20.552c.192-.738.1-1.074-.594-1.407a20.456,20.456,0,0,1-5.132-3.786,1.639,1.639,0,0,1-.13.151l-.26-.26a.5.5,0,0,1-.522-.526,1.007,1.007,0,0,1,.2-.155l-1.42-1.86a40.552,40.552,0,0,1-1.037,5.512" transform="translate(-111.614 -151.993)"/>
    </clipPath>
    <clipPath id="clip-path-3">
      <path id="Path_759" data-name="Path 759" d="M53.653,8.215a61.134,61.134,0,0,0-24.29,17.366l.011.011c.114.731.217,1.453-.939,1.13a3.215,3.215,0,0,0-.377.347A63.52,63.52,0,0,0,15.374,54.207a11.93,11.93,0,0,0-.453,3.738c2.227-.853,4.327-1.687,6.451-2.456A1.757,1.757,0,0,0,22.6,54.01a50.76,50.76,0,0,1,1.872-6.382A59.217,59.217,0,0,1,34.718,29.9,58.17,58.17,0,0,1,46.885,19.313c-.327,2.419-.649,4.637-.917,6.862A3.187,3.187,0,0,1,44.6,28.66a28.663,28.663,0,0,0-2.8,2.529A51.908,51.908,0,0,0,29.218,52.6l11.326-4.3c.315-.12.436-.4.575-.675a45.737,45.737,0,0,1,6.774-9.851c.7-.648,1.384-1.309,2.1-1.941a40.958,40.958,0,0,1,18.74-9.487c1.685-.2,3.365-.525,5.055-.584,15.747-.554,27.85,5.914,36.427,19.063A41.5,41.5,0,0,1,114.988,55.8c.174-.164.294-.23.343-.33a18.417,18.417,0,0,1,6.438-7.56c.607-.4.533-.8.141-1.279a6.841,6.841,0,0,0-1.021-2.125l-1.783-3.435c-.911-1.261-1.884-2.482-2.707-3.8-.446-.713-1.375-1.15-1.317-2.167-1.407-.948-2.287-2.45-3.628-3.468a3.3,3.3,0,0,0-1.037-1.01c-.233-.253-.45-.521-.7-.756A48.375,48.375,0,0,0,78.284,16.638a37.522,37.522,0,0,0-12.156,1.173l-.494.049a1.848,1.848,0,0,0-1.054.254,7.054,7.054,0,0,0-.768.119,43.711,43.711,0,0,0-8.2,3.019c-.536.266-1.169.428-.926-.441.5-1.78.639-3.614,1-5.411.556-2.747.935-5.529,1.415-8.462-1.262.465-2.37.841-3.454,1.277" transform="translate(-14.89 -6.938)"/>
    </clipPath>
    <clipPath id="clip-path-4">
      <path id="Path_760" data-name="Path 760" d="M236.254,168.6a9.917,9.917,0,0,1-3.09.478c-.93-.048-1.322.237-1.585,1.186a55.589,55.589,0,0,1-15.472,25.787,60.61,60.61,0,0,1-15.832,10.505l-1.307.568a15.311,15.311,0,0,1-1.977.646c-.846.161-1.015.591-.874,1.371.233,1.286.382,2.586.578,3.878.347,2.287.361,2.314,2.538,1.459q32-12.572,39.984-46.024c.052-.217.247-.5-.107-.7-.939.282-1.891.588-2.855.851" transform="translate(-196.072 -167.754)"/>
    </clipPath>
    <clipPath id="clip-path-5">
      <path id="Path_761" data-name="Path 761" d="M46.26,166.352a63.456,63.456,0,0,0,5.75,12.106c.152.247.41.475.283.824,2.064,1.985,3.428,4.564,5.537,6.513.434.4-.1.57-.283.811a4.724,4.724,0,0,1,2.658,1.719A47.977,47.977,0,0,0,71.7,196.845c.413.223.8.528,1.316.2,2.919-1.829,5.846-3.644,8.891-5.539-13.8-5.195-22.854-14.639-27.371-28.428a34.863,34.863,0,0,0-8.274,3.273" transform="translate(-46.26 -163.079)"/>
    </clipPath>
  </defs>
  <g id="Group_37468" data-name="Group 37468" transform="translate(0)">
    <g id="Group_37457" data-name="Group 37457" transform="translate(0)">
      <g id="Group_37456" data-name="Group 37456" clip-path="url(#clip-path)">
        <path id="Path_749" data-name="Path 749" d="M140.751.3a58.922,58.922,0,0,1,19.416,4.325,62.347,62.347,0,0,1,28.36,22.92c.693,1,1.165,1.29,2.294.563,2.145-1.381,4.409-2.578,6.868-3.991-1,3.554-1.916,6.854-2.846,10.152-.52,1.844-1.106,3.671-1.561,5.53-.224.913-.506,1.163-1.483.874-3.673-1.087-7.378-2.065-11.07-3.091a3.784,3.784,0,0,0-1.405-.239c-.911-1.261-1.884-2.482-2.707-3.8-.446-.714-1.375-1.15-1.317-2.167h7.551C173.9,17.066,150.9,1.8,122.481,8.574c.468-2.308.923-4.544,1.375-6.781.088-.434.415-.487.775-.549a49.336,49.336,0,0,1,9.083-.968A22.953,22.953,0,0,0,140.751.3" transform="translate(-68.551 -0.153)" fill="#231f20"/>
        <path id="Path_750" data-name="Path 750" d="M74.587,225.1q4.679,2.884,9.36,5.765a.935.935,0,0,1,.488.854,48.682,48.682,0,0,1-13.289.02c-17.577-2.265-31.639-10.685-42.591-24.492-.867-1.093-1.753-2.172-2.588-3.289-.361-.483-.642-.5-1.166-.206-2.3,1.312-4.641,2.567-7.2,3.973.41-1.475.757-2.748,1.119-4.016q1.485-5.212,2.978-10.423c.159-.556.2-1,1.089-.772,4.475,1.128,8.976,2.151,13.467,3.212,2.065,1.984,3.428,4.563,5.538,6.512.434.4-.1.57-.283.812-2.859-.242-5.661-.859-8.528-1.345.009.589.411.89.689,1.228,10.084,12.3,22.805,19.98,38.706,22.077.729.1,1.475.063,2.213.09" transform="translate(-9.849 -107.713)"/>
        <path id="Path_751" data-name="Path 751" d="M.044,120.8c-.19-.781.266-.895.678-1.05q10.388-3.92,20.776-7.84c2.934-1.1,5.884-2.162,8.813-3.279.8-.306,1.092-.161.818.686a34.755,34.755,0,0,0-1.548,9.64c-.022.673-.468.758-.9.919q-10.348,3.845-20.7,7.682c-1.47.545-2.942,1.083-4.412,1.63-.4.149-.8.44-1.071-.2A35.6,35.6,0,0,1,.044,120.8" transform="translate(0 -60.718)" fill="#d27a51"/>
        <path id="Path_752" data-name="Path 752" d="M33.99,150.22a34.844,34.844,0,0,0-8.274,3.273A107.328,107.328,0,0,0,15.5,157.413a1.321,1.321,0,0,1-1.975-.617c-1.264-1.982-2.463-4-3.642-6.031-.554-.957-.444-1.366.623-1.757,6.149-2.255,12.274-4.575,18.41-6.865,1.711-.638,3.441-1.227,5.142-1.89.7-.271,1-.227,1.062.617a30.872,30.872,0,0,0,1.453,7.012c.286.915.154,1.358-.811,1.583a3.408,3.408,0,0,0-1.77.756" transform="translate(-5.347 -78.414)" fill="#d27a51"/>
        <path id="Path_753" data-name="Path 753" d="M155.028.149a22.953,22.953,0,0,1-7.037-.027,46.123,46.123,0,0,1,7.037.027" transform="translate(-82.828 0)" fill="#132255"/>
        <path id="Path_754" data-name="Path 754" d="M46.592,49.3c.114.732.217,1.453-.939,1.13l.939-1.13" transform="translate(-25.551 -27.595)" fill="#132255"/>
        <path id="Path_755" data-name="Path 755" d="M248.012,156.218l.478.551a1.558,1.558,0,0,0-.154.13.5.5,0,0,1-.522-.526.981.981,0,0,1,.2-.155" transform="translate(-138.698 -87.433)" fill="#11123d"/>
        <path id="Path_756" data-name="Path 756" d="M193.734,110.209c.014-.137.028-.273.041-.41q-.021.205-.041.41" transform="translate(-108.43 -61.453)" fill="#e55f1c"/>
        <path id="Path_757" data-name="Path 757" d="M249.154,157.468l.236.24a1.646,1.646,0,0,1-.131.151L249,157.6a1.562,1.562,0,0,1,.154-.13" transform="translate(-139.362 -88.133)" fill="#11123d"/>
      </g>
    </g>
    <g id="Group_37459" data-name="Group 37459" transform="translate(49.146 66.925)">
      <g id="Group_37458" data-name="Group 37458" clip-path="url(#clip-path-2)">
        <rect id="Rectangle_2331" data-name="Rectangle 2331" width="67.108" height="57.079" transform="translate(-0.307 0)"/>
      </g>
    </g>
    <g id="Group_37461" data-name="Group 37461" transform="translate(6.557 3.055)">
      <g id="Group_37460" data-name="Group 37460" clip-path="url(#clip-path-3)">
        <rect id="Rectangle_2332" data-name="Rectangle 2332" width="107.591" height="51.007" transform="translate(-0.106 0)"/>
      </g>
    </g>
    <g id="Group_37463" data-name="Group 37463" transform="translate(86.333 73.865)">
      <g id="Group_37462" data-name="Group 37462" clip-path="url(#clip-path-4)">
        <rect id="Rectangle_2333" data-name="Rectangle 2333" width="43.488" height="47.583" transform="translate(-0.097 0)"/>
      </g>
    </g>
    <g id="Group_37465" data-name="Group 37465" transform="translate(20.369 71.806)">
      <g id="Group_37464" data-name="Group 37464" clip-path="url(#clip-path-5)">
        <rect id="Rectangle_2334" data-name="Rectangle 2334" width="35.646" height="34.293" transform="translate(0 0)"/>
      </g>
    </g>
    <g id="Group_37467" data-name="Group 37467" transform="translate(0)">
      <g id="Group_37466" data-name="Group 37466" clip-path="url(#clip-path)">
        <path id="Path_762" data-name="Path 762" d="M145.757,69.24a33.309,33.309,0,0,0-5.21.069c-1.934-2.461-3.874-4.918-5.791-7.393a2.476,2.476,0,0,1-.284-.848,1.754,1.754,0,0,0-2.1-1.495,1.8,1.8,0,0,0-1.692,1.848,1.752,1.752,0,0,0,1.669,1.975,1.571,1.571,0,0,1,1.246.786c1.171,1.615,2.355,3.221,3.534,4.83a2.14,2.14,0,0,1-.6.195c-4.986.042-9.974.227-14.956-.138.752-1.07,1.486-2.152,2.261-3.205.806-1.1,1.395-2.357,2.893-2.838a1.482,1.482,0,0,0,.8-1.987,1.878,1.878,0,0,0-1.952-1.428,1.621,1.621,0,0,0-1.723,1.46c-.061.34.011.771-.172,1.013-1.806,2.394-3.357,4.979-5.367,7.22-2.3-.029-4.595-.1-6.891-.071-1.393.015-2.161.847-1.9,2.192.686,3.57,1.483,7.119,2.237,10.676l.8,3.937c.283,1.538.494,3.094.863,4.611.583,2.4,1.877,3.424,4.351,3.482,2.263.052,4.529.005,6.794.009,5.705.009,11.411.04,17.116.026,2.289-.005,3.374-.808,3.748-2.817a33.176,33.176,0,0,0,.613-5.309,2.978,2.978,0,0,0-.362.669,2.978,2.978,0,0,1,.362-.669,21.108,21.108,0,0,0,.531-3.96c.014-.137.028-.274.041-.41l.113-.658c.45-3.049.963-6.091,1.324-9.15.2-1.724-.563-2.527-2.289-2.623M142.5,86.056a3.456,3.456,0,0,0-.268-2.649,3.456,3.456,0,0,1,.268,2.649m-.07.259c-.051.172-.108.344-.169.516.062-.172.119-.343.169-.516m.166-14.163a3.394,3.394,0,0,0-.61-.83,3.394,3.394,0,0,1,.61.83m-6.312,2.625a8.39,8.39,0,0,0,3.481-.269c1.151.872,2.162.432,3.138-.335a49.821,49.821,0,0,1-.388,6.893c-1.605.541-3.259.182-4.889.249-.822.034-1.647-.03-2.471-.051-.016-1.78.015-3.562-.066-5.339-.043-.943.3-1.2,1.194-1.148m.251,8.394a1.276,1.276,0,0,0-.308-.038,1.276,1.276,0,0,1,.308.038m-.351-.033a1.333,1.333,0,0,0-.34.06,1.336,1.336,0,0,1,.34-.06m-1.369,2.178a2.153,2.153,0,0,1,.379-1.915h0a2.153,2.153,0,0,0-.379,1.916m-1.673,3.008c0,.085.011.171.017.257-.007-.086-.014-.172-.017-.257m-6.507-13.553c1.6.055,3.216.061,4.82-.008.944-.041,1.311.214,1.272,1.224-.062,1.6.032,3.206.06,4.81-.16.664-.71.527-1.155.529-1.989.007-3.978-.011-5.968-.019-.009-1.824.013-3.649-.041-5.472-.023-.771.181-1.092,1.011-1.063m-7.177-2.713a3.344,3.344,0,0,0-.139.614,3.344,3.344,0,0,1,.139-.614m-3.782,1.909a2.668,2.668,0,0,0,3.141.674.623.623,0,0,1-.005-.189.623.623,0,0,0,.005.189,16.42,16.42,0,0,0,3.633.131c.8-.011,1.074.243,1.05,1.039-.053,1.822-.037,3.647-.048,5.471a.172.172,0,0,0-.191.066.211.211,0,0,0-.238.028h-1.87l-5.192-.035a.2.2,0,0,0-.2-.068c-.094-.022-.188-.039-.282-.056.094.017.188.034.282.056a38.836,38.836,0,0,0-.716-6.283c-.127-.627.1-.882.633-1.022m7.415,7.474a.09.09,0,0,0,.062.015.09.09,0,0,1-.062-.015m-.112,1.687a1.018,1.018,0,0,0-.191-.015,1.018,1.018,0,0,1,.191.015m-1.689.069a.256.256,0,0,0-.118-.028.256.256,0,0,1,.118.028m-2.736-1.571q-.324,0-.649-.014.325.016.649.014m-3.579-.484c-.234-.026-.469-.042-.7-.053.235.011.47.027.7.053m8.29,8.789-6.23,0a54.272,54.272,0,0,1-.867-6.522l.022-.028.237-.114a25.408,25.408,0,0,0,4.513.026l.468,0H122l1.52.179.045.746a1.887,1.887,0,0,1,.255,1.126,1.885,1.885,0,0,0-.255-1.125,42.665,42.665,0,0,0,.017,5.209c.123-.1.309-.3.359-.269-.051-.029-.236.173-.359.269-.013.1-.026.191-.04.286l-.273.224m-1.019-6.717-.092.026.092-.026m3.374,1.126c-.016-.723.17-1.011.935-.989,1.7.048,3.4.047,5.1.008.729-.017,1,.21.985.964-.035,1.785.007,3.573.018,5.359a63.641,63.641,0,0,1-7.046.017c.008-1.786.051-3.574.01-5.359m7.215,5.241a.749.749,0,0,0,.2-.2.755.755,0,0,1-.2.2m7.1.229a17.9,17.9,0,0,0-3.393-.026c-1.135.091-1.407-.373-1.361-1.418.073-1.652.016-3.31.014-4.965l.417-.117a1.963,1.963,0,0,0,1.232,0h.586l.107.049.108-.047-.215,0,.215,0,4.588.12-.267,4.194-.042.531c.048.151.121.3.159.454-.037-.152-.111-.3-.159-.454.092,1.456-.646,1.827-1.988,1.677m5.432-1.64a6.177,6.177,0,0,1,.173-1.051,6.177,6.177,0,0,0-.173,1.051" transform="translate(-61.264 -33.326)" fill="#d27a51"/>
        <path id="Path_763" data-name="Path 763" d="M80.785,213.031l.107.06-.107-.061h0" transform="translate(-45.214 -119.23)" fill="#11123d"/>
        <path id="Path_764" data-name="Path 764" d="M259.734,98.891a14.743,14.743,0,0,0-14.747,14.727c.07,7.946,5.676,14.6,15.084,14.773,8.069.144,14.028-6.66,14.135-14.913a14.832,14.832,0,0,0-14.472-14.588m-.565,22.741-4.131,2.648.037-4.919,4.129-2.4Zm4.04-2.21-8.1-4.98.033-4.432,11.93,7.006Zm4.193-6.983-4.156,2.063-.112-4.579-7.952-4.736,3.865-2.309,8.391,4.788Z" transform="translate(-137.115 -55.348)" fill="#d27a51"/>
        <path id="Path_765" data-name="Path 765" d="M80,157.425V159.9a2.091,2.091,0,0,0,.342,1.331q.342.417,1.805.417v.255H76.374v-.243a1.9,1.9,0,0,0,1.472-.423A2.08,2.08,0,0,0,78.2,159.9v-4.681a2.08,2.08,0,0,0-.351-1.338,1.9,1.9,0,0,0-1.472-.423v-.243H85.89v3.759h-.236a4.892,4.892,0,0,0-1.31-2.813,4.728,4.728,0,0,0-2.959-.716H80v3.765a2.961,2.961,0,0,0,1.727-.386,3.582,3.582,0,0,0,.868-2.016h.23V159.8H82.6a3.086,3.086,0,0,0-.962-2,3.142,3.142,0,0,0-1.634-.37" transform="translate(-42.745 -85.75)" fill="#332c33"/>
        <path id="Path_766" data-name="Path 766" d="M107.237,153.212a4.52,4.52,0,0,1,2.822.66,1.881,1.881,0,0,1,.793,1.444v.274a1.712,1.712,0,0,1-1.092,1.468,5.569,5.569,0,0,1-2.679.591h-1.108a16.975,16.975,0,0,0,1.5.8,7.344,7.344,0,0,0,1.189.37l1.494,2.1a1.624,1.624,0,0,0,.79.6,3.471,3.471,0,0,0,1.033.137v.243h-3.292l-3.019-4.251h-1.911V159.9a2.077,2.077,0,0,0,.352,1.338,1.9,1.9,0,0,0,1.472.423v.243H100.1v-.243a1.9,1.9,0,0,0,1.472-.423,2.08,2.08,0,0,0,.352-1.338v-4.681a2.08,2.08,0,0,0-.352-1.338,1.9,1.9,0,0,0-1.472-.423v-.243Zm-3.479,4.207h2.234a3.233,3.233,0,0,0,2.222-.551,1.819,1.819,0,0,0,.554-1.341v-.193a1.788,1.788,0,0,0-.572-1.344,3.415,3.415,0,0,0-2.284-.548h-2.154Z" transform="translate(-56.027 -85.75)" fill="#332c33"/>
        <path id="Path_767" data-name="Path 767" d="M134.015,152.83h.274l3.635,7.879a1.193,1.193,0,0,0,.66.594,2.68,2.68,0,0,0,.871.14v.243h-5.06v-.243a3.746,3.746,0,0,0,1.341-.14.464.464,0,0,0,.265-.439,8.6,8.6,0,0,0-.766-1.9h-3.622l-.38.852a1.538,1.538,0,0,0-.062.511,1.148,1.148,0,0,0,.407.843,1.343,1.343,0,0,0,.843.271v.243h-3.566v-.243q1.518,0,2.651-2.944Zm-2.315,5.906h3.411l-1.712-3.828Z" transform="translate(-72.119 -85.537)" fill="#332c33"/>
        <path id="Path_768" data-name="Path 768" d="M154.508,153.212h3.486l6.049,6.205v-3.081a3.294,3.294,0,0,0-.585-2.321,2.046,2.046,0,0,0-1.475-.561v-.243h4.294v.243a2.07,2.07,0,0,0-1.434.5q-.563.5-.564,2.44v5.589h-.211l-7.5-7.674v4.879q0,1.681.622,2.073a3.151,3.151,0,0,0,1.693.392v.243H154.34v-.243a2.629,2.629,0,0,0,1.357-.374q.635-.373.635-1.786v-4.207a1.787,1.787,0,0,0-.476-1.478,2.207,2.207,0,0,0-1.348-.358Z" transform="translate(-86.382 -85.75)" fill="#332c33"/>
        <path id="Path_769" data-name="Path 769" d="M190.581,153.212a5.244,5.244,0,0,1,3.906,1.385,4.147,4.147,0,0,1,1.366,2.928v.274a3.616,3.616,0,0,1-1.468,2.916,5.342,5.342,0,0,1-3.46,1.186h-6.436v-.243a2.05,2.05,0,0,0,1.56-.423,2.08,2.08,0,0,0,.351-1.338v-4.681a2.08,2.08,0,0,0-.351-1.338,2.052,2.052,0,0,0-1.56-.423v-.243Zm-2.359.23v8.2h1.406q2.565,0,3.312-1.132a4.741,4.741,0,0,0,.746-2.67v-.467a3.481,3.481,0,0,0-4.12-3.933Z" transform="translate(-103.255 -85.75)" fill="#332c33"/>
        <path id="Path_770" data-name="Path 770" d="M217.028,152.83h.273l3.635,7.879a1.193,1.193,0,0,0,.66.594,2.681,2.681,0,0,0,.871.14v.243h-5.059v-.243a3.751,3.751,0,0,0,1.341-.14.465.465,0,0,0,.264-.439,8.6,8.6,0,0,0-.765-1.9h-3.622l-.38.852a1.537,1.537,0,0,0-.063.511,1.15,1.15,0,0,0,.408.843,1.344,1.344,0,0,0,.844.271v.243h-3.566v-.243q1.518,0,2.651-2.944Zm-2.316,5.906h3.411l-1.712-3.828Z" transform="translate(-118.579 -85.537)" fill="#332c33"/>
      </g>
    </g>
  </g>
</svg>
