<svg xmlns="http://www.w3.org/2000/svg" xmlns:xlink="http://www.w3.org/1999/xlink" width="201.18" height="108.297" viewBox="0 0 201.18 108.297">
  <defs>
    <clipPath id="clip-path">
      <rect id="Rectangle_2328" data-name="Rectangle 2328" width="201.179" height="108.297" fill="none"/>
    </clipPath>
    <clipPath id="clip-path-2">
      <path id="Path_717" data-name="Path 717" d="M169.51,71.077l11.978-6.822a2.369,2.369,0,0,0,1.2-2.059V42.967l5.446-3.145a2.234,2.234,0,0,1,3.351,1.935v32.95a2.236,2.236,0,0,1-1.117,1.935L161.83,93.115a2.234,2.234,0,0,1-3.351-1.935V58.231A2.235,2.235,0,0,1,159.6,56.3l7.686-4.437c.005,5.715.011,13.858.017,17.938a1.475,1.475,0,0,0,2.212,1.279M152,47.6l-29.95-17.291a.946.946,0,0,1,0-1.638l5.73-3.307a3.3,3.3,0,0,1,3.3,0l30.093,17.374a.839.839,0,0,1,0,1.453l-5.9,3.409a3.266,3.266,0,0,1-3.267,0M176.2,33.625l-29.95-17.292a.945.945,0,0,1,0-1.638l5.729-3.307a3.3,3.3,0,0,1,3.3,0l30.093,17.374a.839.839,0,0,1,0,1.453l-5.9,3.41a3.266,3.266,0,0,1-3.267,0M153.993,0c-.218,0-.437,0-.654.011L153.175,0H48.648a6.217,6.217,0,0,0-3.23.9A6.359,6.359,0,0,0,42.56,7.483,6.34,6.34,0,0,0,47.8,12.377c.28.038.564.038.847.058H77.527l1.035.1c.213.04.426.077.634.135A6.217,6.217,0,0,1,80,24.356a6.2,6.2,0,0,1-1.631.457c-.28.038-.564.038-.847.057H6.209a6.231,6.231,0,0,0-3.23.906A6.218,6.218,0,0,0,5.362,37.249c.28.038.564.038.847.057H92.061c.286.028.75.071,1.036.1.212.039.425.076.633.134A6.219,6.219,0,0,1,92.9,49.685c-.28.037-.564.037-.845.057H79.3a6.231,6.231,0,0,0-3.23.906A6.218,6.218,0,0,0,78.45,62.121c.281.038.565.038.848.057h31.475a5.006,5.006,0,0,0,5.007-5.005V39.518a.941.941,0,0,1,1.411-.815l22.03,12.72a19.121,19.121,0,0,1,9.561,16.559V79.108a9.205,9.205,0,0,1-13.807,7.971L116.89,76.613a2.5,2.5,0,0,1-1.214-1.651,4.991,4.991,0,0,0-4.9-3.973H32.09a6.2,6.2,0,0,0-3.23.906,6.218,6.218,0,0,0,2.384,11.473c.28.038.564.038.847.057H85.171l1.036.1c.212.039.424.076.633.134a6.218,6.218,0,0,1,.8,11.69,6.237,6.237,0,0,1-1.631.457c-.28.038-.564.038-.847.058H69.5a6.192,6.192,0,0,0-1.677.23,6.264,6.264,0,0,0-1.553.674,6.217,6.217,0,0,0,2.384,11.473c.28.038.564.038.847.058h83.821l.1-.005c.075,0,.148.005.223.005.115,0,.232,0,.349-.012s.255-.025.382-.046a4.848,4.848,0,0,0,1.027-.276c.12-.047.236-.1.351-.162.016-.007.032-.012.048-.019a5.93,5.93,0,0,0,1.049-.592l41.906-24.2c.2-.136.41-.257.6-.408a4.851,4.851,0,0,0,1.827-3.792V29.489c0-.037-.005-.075-.008-.112s0-.1-.007-.153c-.008-.154-.017-.307-.039-.459a4.876,4.876,0,0,0-1.24-2.576,3.714,3.714,0,0,0-.82-.693c-.072-.05-.145-.1-.22-.146l-.091-.061L156.055.636c-.219-.1-.428-.226-.654-.314A4.837,4.837,0,0,0,153.993,0Z" transform="translate(0)"/>
    </clipPath>
  </defs>
  <g id="Group_37437" data-name="Group 37437" transform="translate(0)">
    <g id="Group_37434" data-name="Group 37434" transform="translate(0)">
      <g id="Group_37433" data-name="Group 37433" clip-path="url(#clip-path)">
        <path id="Path_713" data-name="Path 713" d="M40.286,60.327c.28.038.564.038.847.058H57.005c.282-.02.566-.02.847-.058a6.184,6.184,0,0,0,1.631-.456,6.218,6.218,0,0,0-.8-11.69c-.272-.077-.554-.115-.831-.173l-.847-.057H41.133a6.217,6.217,0,0,0-3.23.9,6.218,6.218,0,0,0,2.384,11.473" transform="translate(1.306 1.793)" fill="#d27a51"/>
        <path id="Path_714" data-name="Path 714" d="M5.362,12.377c.28.038.564.038.847.058H22.081c.282-.02.566-.02.847-.058a6.225,6.225,0,0,0,1.631-.457,6.336,6.336,0,0,0,3.61-6.967A6.315,6.315,0,0,0,23.759.23C23.487.154,23.2.115,22.928.057L22.081,0H6.209A6.231,6.231,0,0,0,2.978.9,6.359,6.359,0,0,0,.121,7.483a6.342,6.342,0,0,0,5.241,4.894" transform="translate(0 0)" fill="#d27a51"/>
        <path id="Path_715" data-name="Path 715" d="M19.191,48.179c-.272-.077-.554-.114-.831-.173-.282-.019-.564-.038-.847-.056H8.934a6.21,6.21,0,0,0-3.233.9A6.218,6.218,0,0,0,8.086,60.326c.28.038.565.038.848.059h8.579c.282-.021.566-.021.847-.059a6.157,6.157,0,0,0,1.631-.456,6.218,6.218,0,0,0-.8-11.69" transform="translate(0.102 1.793)" fill="#d27a51"/>
        <path id="Path_716" data-name="Path 716" d="M49.106,92.635c-.272-.077-.554-.115-.831-.173l-.847-.057h-8.58a6.216,6.216,0,0,0-3.23.9A6.217,6.217,0,0,0,38,104.782c.28.038.564.038.847.058h8.58c.282-.02.566-.02.847-.058a6.186,6.186,0,0,0,1.631-.456,6.218,6.218,0,0,0-.8-11.691" transform="translate(1.221 3.456)" fill="#d27a51"/>
      </g>
    </g>
    <g id="Group_37436" data-name="Group 37436" transform="translate(0)">
      <g id="Group_37435" data-name="Group 37435" clip-path="url(#clip-path-2)">
        <rect id="Rectangle_2329" data-name="Rectangle 2329" width="201.577" height="108.297" transform="translate(-0.396 0)"/>
      </g>
    </g>
  </g>
</svg>
