<svg xmlns="http://www.w3.org/2000/svg" width="123.748" height="23" viewBox="0 0 123.748 23">
  <g id="Group_37485" data-name="Group 37485" transform="translate(-148.216 -54.987)">
    <circle id="Ellipse_18" data-name="Ellipse 18" cx="11.5" cy="11.5" r="11.5" transform="translate(148.216 54.987)" fill="#fff"/>
    <path id="Path_784" data-name="Path 784" d="M3.288,0,0,2l6.826,4L6.95,9.905l3.538-1.79V4.037Z" transform="translate(155.739 57.33)" fill="#040302"/>
    <path id="Path_785" data-name="Path 785" d="M0,26.931l6.95,4.2,3.288-2.081L0,23.144Z" transform="translate(155.739 40.305)" fill="#040302"/>
    <path id="Path_786" data-name="Path 786" d="M0,47.585v4.2L3.512,49.5V45.506Z" transform="translate(155.739 23.854)" fill="#040302"/>
    <g id="frada" transform="translate(177.424 59.676)">
      <path id="Path_20" data-name="Path 20" d="M5.971,167.205v4.066a3.445,3.445,0,0,0,.563,2.192q.564.686,2.97.686v.42H0v-.4a3.127,3.127,0,0,0,2.422-.7,3.422,3.422,0,0,0,.579-2.2v-7.7a3.421,3.421,0,0,0-.579-2.2,3.128,3.128,0,0,0-2.422-.7v-.4H15.66v6.186H15.27q-.717-3.451-2.156-4.629t-4.87-1.177H5.971v6.2a4.872,4.872,0,0,0,2.842-.635q.855-.635,1.428-3.318h.379v8.214h-.379q-.574-2.683-1.582-3.293a5.172,5.172,0,0,0-2.688-.609" transform="translate(0 -159.996)" fill="#fff"/>
      <path id="Path_21" data-name="Path 21" d="M52.921,167.195H56.6q2.745,0,3.656-.906a3,3,0,0,0,.912-2.207v-.318a2.944,2.944,0,0,0-.942-2.212q-.942-.9-3.759-.9H52.921Zm5.725-6.923q3.339,0,4.644,1.085a3.094,3.094,0,0,1,1.306,2.376v.451a2.818,2.818,0,0,1-1.8,2.417,9.162,9.162,0,0,1-4.409.973H56.566a27.829,27.829,0,0,0,2.469,1.316,12.1,12.1,0,0,0,1.956.61l2.458,3.451a2.669,2.669,0,0,0,1.3.994,5.7,5.7,0,0,0,1.7.225v.4H61.032l-4.967-6.995H52.921v3.7a3.42,3.42,0,0,0,.578,2.2,3.127,3.127,0,0,0,2.422.7v.4H46.909v-.4a3.125,3.125,0,0,0,2.422-.7,3.418,3.418,0,0,0,.579-2.2v-7.7a3.416,3.416,0,0,0-.579-2.2,3.124,3.124,0,0,0-2.422-.7v-.4Z" transform="translate(-29.713 -159.996)" fill="#fff"/>
      <path id="Path_22" data-name="Path 22" d="M108.415,169.237h5.613l-2.817-6.3Zm3.81-9.719h.45l5.981,12.965a1.962,1.962,0,0,0,1.085.978,4.425,4.425,0,0,0,1.434.23v.4H112.85v-.4a6.18,6.18,0,0,0,2.207-.23.765.765,0,0,0,.436-.722,14.177,14.177,0,0,0-1.261-3.124h-5.961l-.625,1.4a2.521,2.521,0,0,0-.1.84,1.889,1.889,0,0,0,.67,1.388,2.208,2.208,0,0,0,1.388.445v.4h-5.868v-.4q2.5,0,4.363-4.844Z" transform="translate(-65.708 -159.518)" fill="#fff"/>
      <path id="Path_23" data-name="Path 23" d="M162.348,160.651v13.5h2.314q4.22,0,5.449-1.864a7.8,7.8,0,0,0,1.229-4.394v-.768a6.885,6.885,0,0,0-1.521-4.808q-1.52-1.665-5.259-1.665Zm3.882-.379a8.627,8.627,0,0,1,6.427,2.279,6.825,6.825,0,0,1,2.247,4.819v.45a5.949,5.949,0,0,1-2.416,4.8,8.789,8.789,0,0,1-5.694,1.951H156.2v-.4q1.988,0,2.566-.7a3.427,3.427,0,0,0,.578-2.2v-7.7a3.425,3.425,0,0,0-.578-2.2q-.58-.7-2.566-.7v-.4Z" transform="translate(-98.943 -159.996)" fill="#fff"/>
      <path id="Path_24" data-name="Path 24" d="M215,169.237h5.611l-2.816-6.3Zm3.809-9.719h.451l5.981,12.965a1.961,1.961,0,0,0,1.085.978,4.427,4.427,0,0,0,1.434.23v.4h-8.326v-.4a6.187,6.187,0,0,0,2.207-.23.764.764,0,0,0,.435-.722,14.15,14.15,0,0,0-1.259-3.124h-5.961l-.624,1.4a2.508,2.508,0,0,0-.1.84,1.888,1.888,0,0,0,.671,1.388,2.208,2.208,0,0,0,1.388.445v.4H210.32v-.4q2.5,0,4.363-4.844Z" transform="translate(-133.222 -159.518)" fill="#fff"/>
    </g>
  </g>
</svg>
