<svg xmlns="http://www.w3.org/2000/svg" width="73.836" height="41.1" viewBox="0 0 73.836 41.1">
  <g id="Group_67916" data-name="Group 67916" transform="translate(-28.152 27.9)">
    <path id="Path_20" data-name="Path 20" d="M35.849,2.98,40.753,0l10.74,6.022v6.084l-5.277,2.669L46.03,8.939Z" transform="translate(23.11 -27.9)"/>
    <path id="Path_21" data-name="Path 21" d="M35.849,14.109,51.12,22.924l-4.9,3.1-10.367-6.27Z" transform="translate(23.11 -32.883)"/>
    <path id="Path_22" data-name="Path 22" d="M35.849,30.843l5.239-3.1V33.7l-5.239,3.414Z" transform="translate(23.11 -37.698)"/>
    <path id="Path_23" data-name="Path 23" d="M4.663,54.127V57.3a2.693,2.693,0,0,0,.44,1.713q.44.535,2.32.535v.328H0v-.312a2.442,2.442,0,0,0,1.891-.544,2.671,2.671,0,0,0,.452-1.72V51.287a2.668,2.668,0,0,0-.452-1.719A2.442,2.442,0,0,0,0,49.023v-.311H12.229v4.831h-.3a6.286,6.286,0,0,0-1.684-3.616,6.078,6.078,0,0,0-3.8-.92H4.663v4.838a3.808,3.808,0,0,0,2.22-.5A4.607,4.607,0,0,0,8,50.76h.3v6.415H8q-.449-2.1-1.236-2.571a4.029,4.029,0,0,0-2.1-.476" transform="translate(28.152 -46.677)"/>
    <path id="Path_24" data-name="Path 24" d="M23.916,48.712a5.812,5.812,0,0,1,3.628.848,2.417,2.417,0,0,1,1.019,1.856v.351a2.2,2.2,0,0,1-1.4,1.888,7.16,7.16,0,0,1-3.444.759H22.293a21.779,21.779,0,0,0,1.928,1.028,9.367,9.367,0,0,0,1.528.475l1.92,2.7a2.073,2.073,0,0,0,1.015.776,4.448,4.448,0,0,0,1.328.176v.312H25.78L21.9,54.415H19.446V57.3a2.671,2.671,0,0,0,.452,1.72,2.444,2.444,0,0,0,1.892.544v.312H14.75v-.312a2.443,2.443,0,0,0,1.892-.544,2.671,2.671,0,0,0,.452-1.72V51.287a2.672,2.672,0,0,0-.452-1.72,2.443,2.443,0,0,0-1.892-.544v-.311Zm-4.471,5.407h2.871a4.16,4.16,0,0,0,2.856-.707,2.342,2.342,0,0,0,.712-1.724v-.249a2.3,2.3,0,0,0-.737-1.728,4.389,4.389,0,0,0-2.936-.7H19.446Z" transform="translate(26.832 -46.677)"/>
    <path id="Path_25" data-name="Path 25" d="M39.249,48.474H39.6L44.273,58.6a1.534,1.534,0,0,0,.848.764,3.462,3.462,0,0,0,1.12.179v.312h-6.5v-.312a4.839,4.839,0,0,0,1.724-.179.6.6,0,0,0,.34-.565,11.085,11.085,0,0,0-.983-2.439H36.162l-.488,1.1a1.953,1.953,0,0,0-.08.656,1.473,1.473,0,0,0,.524,1.084,1.72,1.72,0,0,0,1.084.348v.312H32.618v-.312q1.952,0,3.408-3.783Zm-2.976,7.591h4.383l-2.2-4.92Z" transform="translate(25.233 -46.656)"/>
    <path id="Path_26" data-name="Path 26" d="M56.945,48.712a6.735,6.735,0,0,1,5.02,1.78,5.329,5.329,0,0,1,1.755,3.763v.351a4.647,4.647,0,0,1-1.888,3.748,6.863,6.863,0,0,1-4.447,1.523H49.115v-.311a2.631,2.631,0,0,0,2-.544,2.67,2.67,0,0,0,.452-1.719V51.288a2.671,2.671,0,0,0-.452-1.72,2.635,2.635,0,0,0-2-.544v-.311Zm-3.031.3V59.55h1.807q3.3,0,4.256-1.456a6.093,6.093,0,0,0,.96-3.431v-.6a5.376,5.376,0,0,0-1.188-3.755q-1.187-1.3-4.106-1.3Z" transform="translate(23.757 -46.677)"/>
    <path id="Path_27" data-name="Path 27" d="M72.762,48.474h.351L77.786,58.6a1.534,1.534,0,0,0,.848.764,3.462,3.462,0,0,0,1.12.179v.312h-6.5v-.312a4.839,4.839,0,0,0,1.724-.179.6.6,0,0,0,.34-.565,11.084,11.084,0,0,0-.983-2.439H69.675l-.488,1.1a1.953,1.953,0,0,0-.08.656,1.473,1.473,0,0,0,.524,1.084,1.72,1.72,0,0,0,1.084.348v.312H66.131v-.312q1.952,0,3.408-3.783Zm-2.976,7.591H74.17l-2.2-4.92Z" transform="translate(22.234 -46.656)"/>
  </g>
</svg>
