<?xml version="1.0" encoding="UTF-8"?>
<svg id="Layer_1" xmlns="http://www.w3.org/2000/svg" version="1.1" viewBox="0 0 600 104">
  <!-- Generator: Adobe Illustrator 29.2.1, SVG Export Plug-In . SVG Version: 2.1.0 Build 116)  -->
  <g>
    <path d="M118.26,47.71v18.56c0,4.58.86,7.92,2.57,10,1.71,2.09,6.23,3.13,13.56,3.13v1.92h-43.38v-1.82c5.61,0,9.29-1.06,11.05-3.18,1.76-2.12,2.64-5.47,2.64-10.05V31.11c0-4.58-.88-7.93-2.64-10.05-1.76-2.12-5.45-3.18-11.05-3.18v-1.82h71.47v28.23h-1.78c-2.18-10.5-5.46-17.54-9.84-21.13-4.38-3.58-11.79-5.37-22.23-5.37h-10.38v28.28c6.05,0,10.37-.96,12.97-2.9,2.6-1.93,4.78-6.98,6.52-15.14h1.73v37.49h-1.73c-1.75-8.16-4.15-13.17-7.22-15.03-3.07-1.85-7.16-2.78-12.27-2.78Z"/>
    <path d="M223.05,16.06c10.16,0,17.22,1.65,21.2,4.96,3.97,3.3,5.96,6.92,5.96,10.84v2.06c0,4.39-2.74,8.07-8.2,11.03-5.47,2.96-12.18,4.44-20.12,4.44h-8.32c5.23,3.02,8.99,5.03,11.27,6.01,2.27.98,5.25,1.91,8.93,2.78l11.22,15.75c1.78,2.34,3.75,3.85,5.94,4.53,2.18.69,4.77,1.03,7.76,1.03v1.82h-24.73l-22.67-31.93h-14.35v16.87c0,4.58.88,7.93,2.64,10.05,1.76,2.12,5.45,3.18,11.05,3.18v1.82h-41.14v-1.82c5.61,0,9.29-1.06,11.06-3.18,1.76-2.12,2.64-5.47,2.64-10.05V31.11c0-4.58-.88-7.93-2.64-10.05-1.76-2.12-5.45-3.18-11.06-3.18v-1.82h53.57ZM196.93,47.66h16.78c8.35,0,13.91-1.38,16.69-4.14,2.77-2.76,4.16-6.12,4.16-10.07v-1.45c0-3.99-1.43-7.35-4.3-10.1-2.87-2.74-8.58-4.11-17.15-4.11h-16.17v29.87Z"/>
    <path d="M303.31,14.8h2.06l27.3,59.18c1.25,2.27,2.9,3.76,4.96,4.46s4.24,1.05,6.54,1.05v1.82h-38v-1.82c5.39,0,8.75-.35,10.07-1.05,1.32-.7,1.98-1.8,1.98-3.29-.06-1.59-1.98-6.34-5.75-14.26h-27.21l-2.85,6.4c-.31.81-.47,2.09-.47,3.83.28,2.87,1.3,4.98,3.06,6.33,1.76,1.35,3.87,2.03,6.33,2.03v1.82h-26.78v-1.82c7.6,0,14.24-7.37,19.91-22.11l18.84-42.58ZM285.92,59.16h25.61l-12.85-28.75-12.76,28.75Z"/>
    <path d="M398.11,16.06c12.71,0,22.49,3.47,29.33,10.4,6.84,6.93,10.26,14.26,10.26,21.99v2.06c0,8.66-3.68,15.96-11.03,21.9-7.35,5.94-16.02,8.9-25.99,8.9h-48.33v-1.82c6.04,0,9.95-1.06,11.71-3.18,1.76-2.12,2.64-5.47,2.64-10.05V31.11c0-4.58-.88-7.93-2.64-10.05-1.76-2.12-5.67-3.18-11.71-3.18v-1.82h45.76ZM380.39,17.79v61.61h10.56c12.84,0,21.13-2.84,24.87-8.51,3.74-5.67,5.61-12.35,5.61-20.05v-3.51c0-9.57-2.31-16.88-6.94-21.95s-12.63-7.6-24-7.6h-10.1Z"/>
    <path d="M481.64,14.8h2.06l27.3,59.18c1.25,2.27,2.9,3.76,4.96,4.46s4.24,1.05,6.54,1.05v1.82h-38v-1.82c5.39,0,8.75-.35,10.07-1.05,1.32-.7,1.98-1.8,1.98-3.29-.06-1.59-1.98-6.34-5.75-14.26h-27.21l-2.85,6.4c-.31.81-.47,2.09-.47,3.83.28,2.87,1.3,4.98,3.06,6.33s3.87,2.03,6.33,2.03v1.82h-26.78v-1.82c7.6,0,14.24-7.37,19.91-22.11l18.84-42.58ZM464.25,59.16h25.61l-12.85-28.75-12.76,28.75Z"/>
  </g>
  <g>
    <polygon points="23.23 16.46 39.65 6.49 75.6 26.64 75.6 47.01 57.93 55.94 57.31 36.41 23.23 16.46"/>
    <polygon points="23.23 37.03 74.35 66.54 57.93 76.93 23.23 55.94 23.23 37.03"/>
    <polygon points="23.23 76.93 40.77 66.55 40.77 86.49 23.23 97.92 23.23 76.93"/>
  </g>
</svg>