<svg id="My-account-icon" xmlns="http://www.w3.org/2000/svg" width="34" height="34" viewBox="0 0 34 34">
  <circle id="Ellipse_8" data-name="Ellipse 8" cx="17" cy="17" r="17" fill="#332c32"/>
  <path id="Path_670" data-name="Path 670" d="M42.172,84.528c-1.94,0-3.881,0-5.821,0a1.973,1.973,0,0,1-2.081-1.654,5.891,5.891,0,0,1,.1-1.894,7.561,7.561,0,0,1,4.409-5.53.416.416,0,0,1,.443.034,5.2,5.2,0,0,0,5.712-.059.385.385,0,0,1,.412-.06,7.567,7.567,0,0,1,4.7,6.217,4.316,4.316,0,0,1,.01,1.3,1.992,1.992,0,0,1-1.953,1.64c-.1,0-.209,0-.314,0H42.172" transform="translate(-25.157 -59.469)" fill="#fff"/>
  <path id="Path_671" data-name="Path 671" d="M58.605,41.893a3.726,3.726,0,1,1,3.721-3.752,3.738,3.738,0,0,1-3.721,3.752" transform="translate(-41.719 -26.639)" fill="#fff"/>
</svg>
