<svg id="customer_help_Icon" xmlns="http://www.w3.org/2000/svg" xmlns:xlink="http://www.w3.org/1999/xlink" width="35.744" height="34" viewBox="0 0 35.744 34">
  <defs>
    <clipPath id="clip-path">
      <path id="Path_622" data-name="Path 622" d="M9.3,13.235a9.3,9.3,0,0,0-9.3,9.3V40.7H26.446a9.3,9.3,0,0,0,9.3-9.3V22.532a9.3,9.3,0,0,0-9.3-9.3Z" transform="translate(0 -13.235)" fill="#0e0d12"/>
    </clipPath>
    <clipPath id="clip-path-2">
      <path id="Path_623" data-name="Path 623" d="M12.131,38.2a2.763,2.763,0,1,0,2.762-2.763A2.762,2.762,0,0,0,12.131,38.2" transform="translate(-12.131 -35.434)" fill="#fff"/>
    </clipPath>
    <clipPath id="clip-path-3">
      <path id="Path_624" data-name="Path 624" d="M30.582,38.2a2.762,2.762,0,1,0,2.762-2.763A2.762,2.762,0,0,0,30.582,38.2" transform="translate(-30.582 -35.434)" fill="#fff"/>
    </clipPath>
    <clipPath id="clip-path-4">
      <path id="Path_625" data-name="Path 625" d="M49.032,38.2a2.763,2.763,0,1,0,2.763-2.763A2.763,2.763,0,0,0,49.032,38.2" transform="translate(-49.032 -35.434)" fill="#fff"/>
    </clipPath>
    <clipPath id="clip-path-5">
      <path id="Path_626" data-name="Path 626" d="M30.37,0A5.673,5.673,0,0,0,24.7,5.667V8.5h2.18V5.667a3.487,3.487,0,1,1,6.974,0V8.5h2.179V5.667A5.673,5.673,0,0,0,30.37,0Z" transform="translate(-24.703)" fill="#0e0d12"/>
    </clipPath>
    <clipPath id="clip-path-6">
      <path id="Path_627" data-name="Path 627" d="M23.38,17.625a1.744,1.744,0,1,0,1.744-1.744,1.743,1.743,0,0,0-1.744,1.744" transform="translate(-23.38 -15.881)" fill="#0e0d12"/>
    </clipPath>
    <clipPath id="clip-path-7">
      <path id="Path_628" data-name="Path 628" d="M41.908,17.625a1.743,1.743,0,1,0,1.744-1.744,1.743,1.743,0,0,0-1.744,1.744" transform="translate(-41.908 -15.881)" fill="#0e0d12"/>
    </clipPath>
  </defs>
  <g id="Group_69" data-name="Group 69" transform="translate(0 6.539)" clip-path="url(#clip-path)">
    <path id="Path_629" data-name="Path 629" d="M0,0H35.744V27.461H0Z" transform="translate(0 0)" fill="#0e0d12"/>
  </g>
  <g id="Group_71" data-name="Group 71" transform="translate(5.993 17.507)" clip-path="url(#clip-path-2)">
    <rect id="Rectangle_153" data-name="Rectangle 153" width="5.525" height="5.525" transform="translate(0 0)" fill="#fff"/>
  </g>
  <g id="Group_73" data-name="Group 73" transform="translate(15.11 17.507)" clip-path="url(#clip-path-3)">
    <rect id="Rectangle_154" data-name="Rectangle 154" width="5.525" height="5.525" transform="translate(0 0)" fill="#fff"/>
  </g>
  <g id="Group_75" data-name="Group 75" transform="translate(24.225 17.507)" clip-path="url(#clip-path-4)">
    <rect id="Rectangle_155" data-name="Rectangle 155" width="5.525" height="5.525" transform="translate(0 0)" fill="#fff"/>
  </g>
  <g id="Group_77" data-name="Group 77" transform="translate(12.205)" clip-path="url(#clip-path-5)">
    <rect id="Rectangle_156" data-name="Rectangle 156" width="11.333" height="8.5" transform="translate(0 0)" fill="#0e0d12"/>
  </g>
  <g id="Group_79" data-name="Group 79" transform="translate(11.551 7.846)" clip-path="url(#clip-path-6)">
    <rect id="Rectangle_157" data-name="Rectangle 157" width="3.487" height="3.487" transform="translate(0 0)" fill="#0e0d12"/>
  </g>
  <g id="Group_81" data-name="Group 81" transform="translate(20.705 7.846)" clip-path="url(#clip-path-7)">
    <rect id="Rectangle_158" data-name="Rectangle 158" width="3.487" height="3.487" transform="translate(0 0)" fill="#0e0d12"/>
  </g>
</svg>
