<svg id="Icon" xmlns="http://www.w3.org/2000/svg" width="36.342" height="34" viewBox="0 0 36.342 34">
  <path id="Path_638" data-name="Path 638" d="M40.37,30.129V47.744a4.025,4.025,0,0,1-4.025,4.028H15.273l7.5-7.143,1.688,3.265,3.891-11.2-11.465,3.24,3.265,1.944-8.4,8a3.974,3.974,0,0,1-.613-2.132V30.129a.615.615,0,0,1,0-.077,4.021,4.021,0,0,1,3.035-3.824,3.892,3.892,0,0,1,.989-.124H36.345a3.867,3.867,0,0,1,.986.124,4.015,4.015,0,0,1,3.035,3.824.615.615,0,0,1,0,.077" transform="translate(-7.588 -17.772)" fill="#332c32"/>
  <path id="Path_639" data-name="Path 639" d="M5.191,12.281H0L6.316,0H9.7Z" transform="translate(0.001 0)" fill="#4e484d"/>
  <path id="Path_640" data-name="Path 640" d="M21.457,12.281H16.265L20.777,0h3.387Z" transform="translate(-11.073 0)" fill="#c8c8c8"/>
  <path id="Path_641" data-name="Path 641" d="M37.722,12.281H32.53L35.237,0h3.387Z" transform="translate(-22.147 0)" fill="#4e484d"/>
  <path id="Path_642" data-name="Path 642" d="M53.988,12.281H48.8L49.7,0h3.387Z" transform="translate(-33.222 0)" fill="#c8c8c8"/>
  <path id="Path_643" data-name="Path 643" d="M68.329,12.281H63.137L62.235,0h3.387Z" transform="translate(-42.371 0)" fill="#4e484d"/>
  <path id="Path_644" data-name="Path 644" d="M93.162,12.281H87.97L83.459,0h3.387Z" transform="translate(-56.82 0)" fill="#4e484d"/>
  <path id="Path_645" data-name="Path 645" d="M80.745,12.281H75.554L72.847,0h3.387Z" transform="translate(-49.595 0)" fill="#c8c8c8"/>
  <path id="Path_646" data-name="Path 646" d="M5.191,38.477a2.6,2.6,0,1,1-5.192,0Z" transform="translate(0.001 -26.196)" fill="#131113"/>
  <path id="Path_647" data-name="Path 647" d="M21.457,38.477a2.6,2.6,0,0,1-5.192,0Z" transform="translate(-11.073 -26.196)" fill="#fff"/>
  <path id="Path_648" data-name="Path 648" d="M37.722,38.477a2.6,2.6,0,0,1-5.192,0Z" transform="translate(-22.147 -26.196)" fill="#131113"/>
  <path id="Path_649" data-name="Path 649" d="M53.988,38.477a2.6,2.6,0,1,1-5.191,0Z" transform="translate(-33.222 -26.196)" fill="#fff"/>
  <path id="Path_650" data-name="Path 650" d="M70.253,38.477a2.6,2.6,0,1,1-5.192,0Z" transform="translate(-44.295 -26.196)" fill="#131113"/>
  <path id="Path_651" data-name="Path 651" d="M86.519,38.477a2.6,2.6,0,1,1-5.192,0Z" transform="translate(-55.369 -26.196)" fill="#fff"/>
  <path id="Path_652" data-name="Path 652" d="M102.785,38.477a2.6,2.6,0,1,1-5.192,0Z" transform="translate(-66.443 -26.196)" fill="#131113"/>
</svg>
