<svg xmlns="http://www.w3.org/2000/svg" width="239.73" height="49.792" viewBox="0 0 239.73 49.792">
  <g id="Header" transform="translate(-72.27 -47.708)">
    <g id="Top_Section" data-name="Top Section">
      <g id="Frada_logo" data-name="Frada logo" transform="translate(21.488 -12.441)">
        <g id="frada" transform="translate(87.275 60.149)">
          <path id="Path_20" data-name="Path 20" d="M12.061,174.277v8.212a6.958,6.958,0,0,0,1.137,4.428q1.138,1.386,6,1.385v.849H0v-.807q3.724,0,4.893-1.406a6.911,6.911,0,0,0,1.169-4.448V166.932a6.91,6.91,0,0,0-1.169-4.447Q3.723,161.079,0,161.078v-.806H31.631v12.494h-.786q-1.448-6.97-4.354-9.35t-9.836-2.378H12.061v12.515q4.012,0,5.741-1.282t2.885-6.7h.766v16.591h-.766q-1.158-5.42-3.195-6.651a10.446,10.446,0,0,0-5.43-1.231" transform="translate(0 -157.79)" fill="#030305"/>
          <path id="Path_21" data-name="Path 21" d="M59.052,174.255h7.426q5.544,0,7.385-1.83a6.051,6.051,0,0,0,1.841-4.457v-.642a5.945,5.945,0,0,0-1.9-4.468q-1.9-1.819-7.592-1.82H59.052Zm11.563-13.983q6.744,0,9.381,2.192a6.249,6.249,0,0,1,2.637,4.8v.911q0,2.917-3.63,4.882a18.507,18.507,0,0,1-8.906,1.965H66.416a56.209,56.209,0,0,0,4.986,2.657,24.441,24.441,0,0,0,3.95,1.231l4.965,6.971a5.392,5.392,0,0,0,2.628,2.007,11.5,11.5,0,0,0,3.434.454v.807H75.436L65.4,175.021h-6.35v7.467a6.908,6.908,0,0,0,1.168,4.448q1.168,1.406,4.892,1.405v.807h-18.2v-.807q3.724,0,4.891-1.405a6.9,6.9,0,0,0,1.17-4.448V166.932a6.9,6.9,0,0,0-1.17-4.447q-1.167-1.407-4.891-1.407v-.806Z" transform="translate(-12.176 -157.79)" fill="#030305"/>
          <path id="Path_22" data-name="Path 22" d="M113.189,179.148h11.337l-5.689-12.721Zm7.7-19.63h.909l12.082,26.188a3.963,3.963,0,0,0,2.192,1.976,8.939,8.939,0,0,0,2.9.464v.807H122.147v-.807a12.483,12.483,0,0,0,4.457-.464,1.546,1.546,0,0,0,.881-1.459q-.044-1.056-2.546-6.309H112.9l-1.262,2.834a5.093,5.093,0,0,0-.207,1.7,3.816,3.816,0,0,0,1.354,2.8,4.46,4.46,0,0,0,2.8.9v.807H103.735v-.807q5.047,0,8.813-9.785Z" transform="translate(-26.926 -157.595)" fill="#030305"/>
          <path id="Path_23" data-name="Path 23" d="M168.615,161.037V188.3h4.674q8.524,0,11.007-3.764a15.759,15.759,0,0,0,2.483-8.876v-1.551q0-6.35-3.073-9.712t-10.622-3.362Zm7.84-.765q8.441,0,12.981,4.6t4.54,9.733v.91a12.016,12.016,0,0,1-4.881,9.691,17.753,17.753,0,0,1-11.5,3.941H156.2v-.807q4.015,0,5.183-1.405a6.922,6.922,0,0,0,1.168-4.448V166.932a6.919,6.919,0,0,0-1.168-4.447q-1.171-1.407-5.183-1.407v-.806Z" transform="translate(-40.545 -157.79)" fill="#030305"/>
          <path id="Path_24" data-name="Path 24" d="M219.775,179.148H231.11l-5.689-12.721Zm7.695-19.63h.911l12.081,26.188a3.96,3.96,0,0,0,2.192,1.976,8.941,8.941,0,0,0,2.9.464v.807H228.732v-.807a12.5,12.5,0,0,0,4.457-.464,1.543,1.543,0,0,0,.879-1.459q-.041-1.056-2.543-6.309H219.484l-1.261,2.834a5.068,5.068,0,0,0-.208,1.7,3.814,3.814,0,0,0,1.355,2.8,4.46,4.46,0,0,0,2.8.9v.807H210.32v-.807q5.049,0,8.812-9.785Z" transform="translate(-54.592 -157.595)" fill="#030305"/>
          <text id="KSA" transform="translate(192.236 11)" fill="#030305" font-size="12" font-family="Cambria-Bold, Cambria" font-weight="700"><tspan x="-10.989" y="0">KSA</tspan></text>
        </g>
        <g id="draw" transform="translate(50.782 61.062)">
          <path id="Path_25" data-name="Path 25" d="M90.038,5.332,98.815,0l19.218,10.776V21.662l-9.443,4.777L108.257,16Z" transform="translate(-90.038 0.001)" fill="#030305"/>
          <path id="Path_26" data-name="Path 26" d="M90.038,45.4l27.328,15.775-8.776,5.554L90.038,55.506Z" transform="translate(-90.038 -29.066)" fill="#030305"/>
          <path id="Path_27" data-name="Path 27" d="M90.038,94.811l9.375-5.55v10.66l-9.375,6.11Z" transform="translate(-90.038 -57.152)" fill="#030305"/>
        </g>
        <g id="slogan" transform="translate(107.831 96.249)">
          <text id="Keep_calm_and_stay_classy" data-name="Keep calm and stay classy" transform="translate(0 10)" fill="#030305" font-size="9" font-family="SegoeUI-Semibold, Segoe UI" font-weight="600"><tspan x="0" y="0">KEEP CALM AND STAY CLASSY</tspan></text>
        </g>
      </g>
    </g>
  </g>
</svg>
