<svg xmlns="http://www.w3.org/2000/svg" width="38.697" height="32.937" viewBox="0 0 38.697 32.937">
  <path id="My_Wishes_Button_icon" d="M0,10.328v-1.6c.046-.285.092-.57.139-.855A9.338,9.338,0,0,1,11.966.352a9.661,9.661,0,0,1,5.391,4.122c.161.235.312.478.487.748.193-.3.354-.56.533-.813C20.566,1.3,23.468-.346,27.352.074a9.364,9.364,0,0,1,8.236,10.859,11.1,11.1,0,0,1-2.326,5.219,31.409,31.409,0,0,1-5.24,5.234c-2.783,2.283-5.609,4.514-8.417,6.768-.586.471-1.17.944-1.749,1.411-.057-.035-.088-.051-.115-.072-2.722-2.175-5.451-4.341-8.164-6.527a48.21,48.21,0,0,1-6.359-5.835A12.777,12.777,0,0,1,.4,12.262C.217,11.63.129,10.973,0,10.328" transform="translate(1.5 1.534)" fill="#fff" stroke="#332c32" stroke-width="3"/>
</svg>
