<svg xmlns="http://www.w3.org/2000/svg" xmlns:xlink="http://www.w3.org/1999/xlink" width="992" height="62" viewBox="0 0 992 62">
  <defs>
    <clipPath id="clip-path">
      <path id="Rectangle_17638" data-name="Rectangle 17638" d="M10,0H982a10,10,0,0,1,10,10V62a0,0,0,0,1,0,0H0a0,0,0,0,1,0,0V10A10,10,0,0,1,10,0Z" transform="translate(-295.083 712)" fill="#f6f6f6"/>
    </clipPath>
  </defs>
  <g id="Land_SHAPE" data-name="Land SHAPE" transform="translate(295.083 -712)" clip-path="url(#clip-path)">
    <path id="Subtraction_5" data-name="Subtraction 5" d="M2010.471,62H150.6V0H1032.4a11.575,11.575,0,0,1,3.157.673,9.507,9.507,0,0,1,5.185,4.274v-1a33.735,33.735,0,0,0,2.6,8.939,33.921,33.921,0,0,0,7.335,10.485,33.885,33.885,0,0,0,10.694,7.051A33.794,33.794,0,0,0,1074.38,33a33.786,33.786,0,0,0,13.016-2.581,33.883,33.883,0,0,0,10.695-7.051,33.926,33.926,0,0,0,7.335-10.485,33.741,33.741,0,0,0,2.557-8.657v.73a9.589,9.589,0,0,1,5.072-4.269A10.764,10.764,0,0,1,1116.124,0h-7.758l902.1,0V62h0Z" transform="translate(-727.993 712)" fill="#f6f6f6"/>
  </g>
</svg>
