<svg xmlns="http://www.w3.org/2000/svg" xmlns:xlink="http://www.w3.org/1999/xlink" width="992" height="62" viewBox="0 0 992 62">
  <defs>
    <clipPath id="clip-path">
      <path id="Rectangle_148020" data-name="Rectangle 148020" d="M10,0H982a10,10,0,0,1,10,10V62a0,0,0,0,1,0,0H0a0,0,0,0,1,0,0V10A10,10,0,0,1,10,0Z" transform="translate(-295.083 712)" fill="#f2f2f2"/>
    </clipPath>
  </defs>
  <g id="Land_SHAPE" data-name="Land SHAPE" transform="translate(295.083 -712)" clip-path="url(#clip-path)">
    <path id="Subtraction_7" data-name="Subtraction 7" d="M1790.872,62H-69V0H812.8a11.568,11.568,0,0,1,3.157.673,9.509,9.509,0,0,1,5.185,4.274V3.954a33.729,33.729,0,0,0,2.6,8.927,33.912,33.912,0,0,0,7.335,10.485,33.882,33.882,0,0,0,10.695,7.051A33.79,33.79,0,0,0,854.781,33,33.8,33.8,0,0,0,867.8,30.417a33.866,33.866,0,0,0,10.694-7.051,33.909,33.909,0,0,0,7.336-10.485,33.731,33.731,0,0,0,2.556-8.656v.728A9.591,9.591,0,0,1,893.456.685,10.759,10.759,0,0,1,896.525,0h-7.758l902.1,0V62h0Z" transform="translate(-727.993 712)" fill="#f6f6f6"/>
  </g>
</svg>
